<svg width="81" height="80" viewBox="0 0 81 80" fill="none" xmlns="http://www.w3.org/2000/svg">
<path d="M14.0692 79.9998C14.0535 78.7271 14.1428 77.4418 14.0003 76.1831C13.778 74.231 12.823 72.6013 11.4344 71.2174C9.11125 68.902 6.80997 66.5647 4.47268 64.2634C1.45754 61.2968 -0.0108976 57.7134 6.0877e-05 53.4834C0.0219778 45.1284 6.08772e-05 36.7718 0.00945386 28.4151C0.0141503 24.899 2.22463 22.1124 5.57323 21.3469C9.75624 20.3904 13.9549 23.5339 14.0692 27.8312C14.1725 31.7324 14.1036 35.6399 14.1099 39.5443C14.1099 39.8213 14.1099 40.0984 14.1099 40.2096C15.4499 40.1751 16.7149 40.0343 17.9594 40.1376C19.5093 40.2659 20.8259 41.033 21.9248 42.1305C26.0515 46.2493 30.186 50.3618 34.2891 54.5041C36.5372 56.7741 37.6377 59.5529 37.6503 62.7387C37.6722 68.4918 37.6596 74.2435 37.6612 79.9967H14.0692V79.9998ZM21.7292 62.8686C21.5554 62.6385 21.4067 62.3864 21.2063 62.186C18.1927 59.1615 15.2089 56.1041 12.1389 53.1375C10.2368 51.3011 9.36173 49.1595 9.38834 46.5201C9.44627 40.5837 9.4087 34.6474 9.40087 28.7095C9.40087 28.2977 9.39148 27.8641 9.2678 27.4805C8.90304 26.3502 7.80093 25.735 6.61585 25.937C5.48556 26.1295 4.70907 27.1252 4.70907 28.4402C4.70438 36.9033 4.69655 45.3648 4.71377 53.8278C4.71847 56.5315 5.71569 58.8484 7.62716 60.763C9.96445 63.1034 12.2955 65.4485 14.6453 67.7748C16.2061 69.32 17.4084 71.0874 18.1097 73.1758C18.3383 73.8584 18.4995 74.5628 18.6874 75.2438H32.8974C32.924 75.1139 32.9506 75.0388 32.9506 74.9636C32.9506 70.8229 32.9757 66.6837 32.9381 62.543C32.9225 60.7912 32.3088 59.2069 31.0673 57.9529C26.9282 53.7699 22.7624 49.6135 18.595 45.4587C17.95 44.8153 17.1376 44.5648 16.2264 44.7683C15.2292 44.9906 14.5451 45.598 14.2492 46.5686C13.9236 47.6379 14.2398 48.5537 15.0288 49.3411C18.2193 52.5207 21.402 55.7096 24.5846 58.8969C24.7803 59.0926 24.9619 59.3024 25.1247 59.4777C24.0163 60.5845 22.9502 61.6475 21.7276 62.8686H21.7292Z" fill="#E18D51"/>
<path d="M42.3484 79.9998C42.35 74.3781 42.3719 68.7564 42.3468 63.1363C42.3312 59.5904 43.5632 56.6082 46.0899 54.1128C49.9786 50.2726 53.8423 46.4074 57.684 42.5187C59.918 40.2565 62.5073 39.4707 65.5804 40.3724C65.6508 40.3927 65.7275 40.3912 65.9013 40.4115C65.9013 40.1078 65.9013 39.8323 65.9013 39.5583C65.906 35.7072 65.8371 31.853 65.931 28.0034C66.0578 22.8388 71.5026 19.6186 76.1068 21.9371C78.0777 22.9281 79.3004 24.5499 79.8358 26.6915C79.878 26.8606 79.9485 27.0234 80.0048 27.1893V55.3135C79.9626 55.4356 79.8953 55.5546 79.8796 55.6783C79.4507 59.1223 77.8883 61.9747 75.4242 64.3855C73.137 66.6242 70.8984 68.9114 68.6284 71.1673C67.3807 72.4072 66.3944 73.8302 66.1377 75.5742C65.9248 77.0269 65.9968 78.522 65.942 79.9982H42.3484V79.9998ZM54.7816 59.3587C54.9992 59.1991 55.2559 59.0566 55.4563 58.8578C58.5184 55.8066 61.5727 52.7492 64.6301 49.6934C64.8148 49.5086 65.0043 49.3302 65.1765 49.1345C65.8747 48.3455 66.0688 47.4328 65.7181 46.4465C65.3768 45.4869 64.6551 44.9139 63.6548 44.7417C62.6404 44.5679 61.8467 45.0031 61.1437 45.7076C57.2112 49.6542 53.274 53.5977 49.3242 57.5271C47.7807 59.0613 47.0402 60.8945 47.048 63.0643C47.0637 66.8653 47.0511 70.6679 47.0543 74.4689C47.0543 74.721 47.0778 74.973 47.0934 75.2595H61.3754C61.9234 71.8342 63.7832 69.2151 66.2269 66.9029C68.2495 64.9898 70.1579 62.9547 72.1523 61.0088C74.3033 58.911 75.324 56.3874 75.3146 53.3848C75.2896 45.2082 75.3068 37.0332 75.3052 28.8566C75.3052 28.5967 75.3178 28.3337 75.2927 28.0754C75.1659 26.7307 74.0653 25.8086 72.7206 25.9119C71.4588 26.009 70.6072 27.0124 70.6056 28.4449C70.5993 34.5112 70.5759 40.579 70.615 46.6453C70.6322 49.1908 69.7743 51.2792 67.9443 53.0607C64.8274 56.0915 61.7825 59.1975 58.7063 62.2721C58.5278 62.4506 58.3368 62.6165 58.174 62.7653C57.0735 61.66 56.012 60.5939 54.7784 59.3556L54.7816 59.3587Z" fill="#E18D51"/>
<path d="M46.8659 15.8959C48.9261 17.0904 50.5981 18.6309 51.8567 20.5924C53.25 22.7622 54.0484 25.1324 54.0829 27.7217C54.1157 30.2155 54.0907 32.7094 54.0907 35.2533H26.0339C26.0057 35.2189 25.9446 35.1813 25.9446 35.1437C25.9775 32.1536 25.7771 29.1385 26.1074 26.1813C26.5974 21.7853 29.0208 18.4743 32.7639 16.1339C32.8735 16.065 32.9784 15.9914 33.1459 15.8803C31.0669 13.496 30.2028 10.7658 30.7757 7.65048C31.1969 5.35702 32.36 3.47999 34.1838 2.0413C37.9551 -0.934706 43.234 -0.618475 46.6389 2.75517C49.8873 5.97383 50.6497 11.547 46.8675 15.8975L46.8659 15.8959ZM49.3347 30.5678C49.8967 25.7914 48.1606 22.0186 44.5145 19.9882C41.2254 18.1581 37.1191 18.4947 34.1243 20.9165C30.9777 23.462 30.2043 26.9327 30.7397 30.5678H49.3347ZM40.0012 14.1035C42.6187 14.1035 44.7055 12.0119 44.6977 9.39757C44.6899 6.79885 42.5592 4.68543 39.9668 4.70578C37.4041 4.72613 35.3141 6.82859 35.3094 9.39287C35.3032 12.0135 37.3853 14.1035 40.0012 14.1035Z" fill="#E18D51"/>
</svg>
