<svg width="80" height="81" viewBox="0 0 80 81" fill="none" xmlns="http://www.w3.org/2000/svg">
<path d="M25.3124 0C26.2314 0.267716 27.1896 0.441496 28.06 0.820368C31.008 2.10572 32.9055 4.34607 33.7447 7.45064C34.7952 11.3396 35.8113 15.2379 36.843 19.1331C36.9025 19.3554 36.9729 19.5746 37.0481 19.825C40.627 19.825 44.1668 19.825 47.7066 19.825C48.6961 19.825 49.3369 20.2916 49.6292 21.2247C50.3618 23.5825 51.1086 25.9355 51.8116 28.3027C51.9587 28.7974 52.1811 28.943 52.6789 28.9383C55.1259 28.9149 57.5729 28.9211 60.0215 28.9289C65.415 28.9446 69.3415 32.8601 69.3524 38.2411C69.3618 42.7186 69.354 47.1978 69.354 51.6754C69.354 51.9306 69.354 52.1842 69.354 52.5302H58.697C61.5777 58.5358 64.3911 64.402 67.1966 70.2511C71.6351 69.5184 74.724 65.7453 75.3674 60.2877H79.9828C80.0157 62.3042 79.6509 64.2377 78.8164 66.0412C76.014 72.1 71.2327 75.1983 64.5649 75.2344C55.2183 75.2844 45.8717 75.2531 36.5236 75.2375C35.8175 75.2375 35.2492 75.3972 34.6621 75.8246C21.5331 85.3856 2.8525 77.6469 0.286503 61.5996C0.197264 61.0642 0.0955009 60.5335 0 60.0012C0 58.8035 0 57.6058 0 56.4066C0.123681 55.6426 0.225445 54.8739 0.375741 54.1146C2.55817 43.0443 12.3306 35.5749 23.5778 36.3796C24.2165 36.425 24.8537 36.497 25.5301 36.5596C25.4846 36.2794 25.4643 36.0743 25.4173 35.8755C23.3163 27.105 21.209 18.3346 19.1127 9.56261C18.3534 6.37821 17.6207 3.18754 16.8755 0C19.6873 0 22.5006 0 25.3124 0ZM21.8196 75.3142C31.2899 75.3267 39.0317 67.6005 39.0286 58.1413C39.0254 48.718 31.3118 40.9934 21.8838 40.9715C12.459 40.9495 4.71712 48.6507 4.68737 58.0771C4.65606 67.5583 12.3525 75.3017 21.8196 75.3142ZM62.0756 70.5016C61.9957 70.3012 61.9644 70.2026 61.9206 70.1102C59.2012 64.4365 56.4755 58.7675 53.7717 53.0875C53.5682 52.6601 53.313 52.5427 52.8715 52.5458C49.8249 52.5615 46.7798 52.5521 43.7331 52.5552C43.5108 52.5552 43.2885 52.5881 42.9879 52.6116C43.7848 55.724 43.9195 58.7941 43.3856 61.883C42.8517 64.9657 41.6744 67.8009 39.8849 70.5H62.074L62.0756 70.5016ZM30.9345 38.2411H49.9955C49.5039 36.6614 49.0342 35.1537 48.5536 33.6132H35.8175C35.0066 30.5603 34.2034 27.5387 33.4097 24.55H27.6076C28.7239 29.1434 29.8276 33.6805 30.936 38.2411H30.9345ZM37.8309 43.0333C38.8235 44.4486 39.8333 45.8248 40.7632 47.251C41.0576 47.7035 41.3378 47.8773 41.8685 47.8757C49.1783 47.86 56.488 47.8647 63.7977 47.8632C64.0701 47.8632 64.3426 47.8319 64.6197 47.8146V43.0333H37.8293H37.8309ZM32.1118 19.7875C32.0633 19.5229 32.0413 19.3162 31.9881 19.119C31.0722 15.6528 30.1626 12.1865 29.2327 8.72502C28.4499 5.8099 25.8432 4.2083 22.7981 4.78757C24.013 9.7818 25.2279 14.7729 26.4475 19.7875H32.1118ZM53.4899 33.6461C53.9095 35.0144 54.3337 36.317 54.697 37.6352C54.8394 38.1487 55.0617 38.3209 55.6066 38.3146C58.3871 38.2833 61.1675 38.3021 63.948 38.2974C64.1735 38.2974 64.3973 38.2661 64.6134 38.2505C64.7621 35.8927 63.1652 33.8418 60.8168 33.6805C58.4168 33.5161 55.998 33.6445 53.4883 33.6445L53.4899 33.6461ZM45.759 24.5907H38.2708C38.6732 26.0921 39.052 27.5058 39.4231 28.8929H47.0866C46.6295 27.4103 46.1896 25.9841 45.759 24.5907Z" fill="#E18D51"/>
<path d="M19.5184 45.2297H24.2058C24.2058 46.1221 24.2309 46.9973 24.1964 47.8693C24.1761 48.3891 24.3201 48.6772 24.8164 48.9574C26.8532 50.1018 27.9006 51.8804 28.018 54.2898H23.398C23.3526 54.1583 23.304 53.9908 23.2367 53.8311C22.9346 53.1125 22.2504 52.7367 21.5474 52.9011C20.8179 53.0702 20.3263 53.7231 20.3842 54.4448C20.4453 55.2135 21.0167 55.7411 21.8371 55.7896C24.8947 55.9697 27.1491 57.731 27.827 60.4739C28.4971 63.1823 27.3041 65.9894 24.8524 67.3218C24.3358 67.6036 24.162 67.9026 24.1933 68.4662C24.2418 69.3163 24.2058 70.1696 24.2058 71.0604H19.5184C19.5184 70.1837 19.4918 69.3085 19.5278 68.4349C19.5498 67.9151 19.4135 67.6224 18.9126 67.3468C16.8616 66.218 15.8158 64.4379 15.6859 61.9737C17.1857 61.9737 18.6323 61.9627 20.0774 61.9925C20.2057 61.9956 20.3701 62.2367 20.4484 62.4011C20.8335 63.2168 21.5099 63.5957 22.2457 63.3796C22.9612 63.1698 23.3854 62.517 23.2993 61.7624C23.2132 61.014 22.6434 60.5365 21.7792 60.488C18.7732 60.3204 16.5219 58.5169 15.8487 55.7364C15.1896 53.0123 16.4483 50.3304 19.0503 48.8259C19.2773 48.6944 19.4824 48.3312 19.4981 48.0635C19.5529 47.1366 19.5184 46.2035 19.5184 45.2297Z" fill="#E18D51"/>
</svg>
