<svg width="81" height="76" viewBox="0 0 81 76" fill="none" xmlns="http://www.w3.org/2000/svg">
<path d="M80 37.9514V75.0019H75.347C75.1089 69.2549 70.553 65.3845 65.1734 65.5928C61.3238 65.7416 57.4648 65.621 53.609 65.621C40.5333 65.621 27.456 65.6179 14.3803 65.6241C11.0585 65.6241 8.37572 66.9539 6.39768 69.6277C5.23874 71.1941 4.70625 72.9985 4.63421 74.9517H0V37.989C1.55048 37.6084 3.0853 37.2324 4.67493 36.8424V0.0128233H9.37335V5.82868C29.813 -1.94042 50.1791 -1.94825 70.6454 5.84121V0.00655791H75.3157V36.8581C76.9163 37.2309 78.4589 37.5911 80.0016 37.9514H80ZM75.2656 64.4807C75.2906 64.2395 75.3094 64.1423 75.3094 64.0437C75.3094 56.7758 75.3047 49.5079 75.3251 42.2416C75.3251 41.7012 75.0776 41.612 74.6516 41.5133C65.2986 39.322 55.8172 38.0548 46.2231 37.6757C32.441 37.1306 18.8187 38.3759 5.37343 41.4992C4.78456 41.6355 4.64517 41.8547 4.64674 42.4186C4.66397 49.5565 4.6577 56.6928 4.6577 63.8306V64.4807C4.82528 64.3977 4.89889 64.3757 4.95214 64.3319C7.83853 61.9244 11.1666 60.9094 14.9128 60.9188C31.4778 60.9548 48.0413 60.9689 64.6064 60.9094C68.5625 60.8953 72.1255 61.7678 75.264 64.4838L75.2656 64.4807ZM70.622 35.7977V12.6971C70.622 10.8786 70.6329 10.8488 68.9164 10.2113C57.5979 6.01351 45.9709 3.86918 33.8584 4.94056C25.6643 5.66578 17.7569 7.58613 10.0969 10.57C9.5143 10.7971 9.33106 11.0666 9.33263 11.69C9.35612 19.4528 9.34829 27.2172 9.34829 34.98V35.8039C12.5667 35.2714 15.71 34.7513 18.8328 34.236C18.8626 34.142 18.8923 34.0919 18.8908 34.0434C18.7937 30.8198 19.1664 27.6526 19.9636 24.5293C20.0215 24.3007 19.9714 24.003 19.8696 23.7838C18.4256 20.6605 19.002 17.3539 18.8767 14.0348C20.2878 14.0348 21.6112 14.0599 22.933 14.0285C24.6933 13.9878 26.413 14.1632 28.0715 14.8007C28.297 14.8869 28.5821 14.8791 28.8295 14.843C36.1465 13.8061 43.4635 13.7529 50.7852 14.7929C51.2347 14.8571 51.7515 14.9088 52.1556 14.7537C55.1078 13.6244 58.1633 14.1742 61.2439 14.0207C61.2439 15.7343 61.2376 17.3429 61.2455 18.9531C61.2533 20.5633 60.9181 22.0984 60.3387 23.5974C60.193 23.9764 60.1586 24.4651 60.2525 24.8614C60.9135 27.6887 61.305 30.5426 61.2345 33.4513C61.2282 33.727 61.2345 34.0011 61.2345 34.247C64.4153 34.7733 67.485 35.2808 70.6235 35.8008L70.622 35.7977ZM56.5533 33.7301C56.5533 33.4043 56.5533 33.1255 56.5533 32.8482C56.558 30.0413 56.1226 27.2971 55.2894 24.6249C55.0592 23.8856 55.1297 23.3248 55.5291 22.6732C56.2557 21.4875 56.652 20.1874 56.5063 18.5459C55.4069 18.8216 54.3639 18.9578 53.4336 19.3573C52.638 19.7003 51.9081 19.7206 51.1016 19.5953C43.6609 18.4315 36.2201 18.4409 28.7825 19.6204C28.0699 19.7332 27.4341 19.7065 26.7606 19.3667C25.7865 18.8748 24.7262 18.6383 23.5845 18.7636C23.4999 20.366 24.0152 21.724 24.7638 23.0366C24.9423 23.3499 25.0003 23.8167 24.9298 24.1753C24.5821 25.9328 24.0888 27.6652 23.8085 29.432C23.5876 30.8229 23.6033 32.2514 23.5109 33.7176C34.5898 32.5882 45.4776 32.5851 56.5502 33.7317L56.5533 33.7301Z" fill="#E18D51"/>
<path d="M42.3483 42.2273V46.8418H46.9621V51.5408H42.3483V56.1835H37.6499V51.569H33.0078V46.87H37.6217V42.2273H42.3483Z" fill="#E18D51"/>
</svg>
