<svg width="87" height="80" viewBox="0 0 87 80" fill="none" xmlns="http://www.w3.org/2000/svg">
<path d="M86.3429 24.3257C86.1473 25.412 86.0069 26.5118 85.7462 27.5814C84.2521 33.7067 80.8008 38.4231 75.451 41.754C75.2872 41.8559 75.1268 41.9629 74.9613 42.0715C75.2622 43.4621 75.6382 44.8258 75.8454 46.213C76.8984 53.2458 75.3474 59.7004 70.9218 65.2441C67.6009 69.4039 65.8812 73.9332 66.1586 79.2328C66.172 79.4735 66.1586 79.7175 66.1586 79.9983H51.1737V75.083H36.1504V79.9799H21.1221C21.1221 79.2094 21.1221 78.4406 21.1221 77.6718C21.1221 74.8189 19.974 72.5493 17.5974 70.9683C13.613 68.3176 10.5696 64.863 8.54228 60.5293C8.33504 60.0865 8.06596 60.0112 7.63811 60.0146C5.44537 60.0313 3.25263 60.0213 0.998047 60.0213V40.0041H3.63535C4.5529 40.0041 5.48381 39.9005 6.38297 40.0275C7.83532 40.2348 8.78295 39.7702 9.14562 38.3228C9.23754 37.9551 9.2927 37.5139 9.18072 37.1663C7.97906 33.4727 6.73895 29.7908 5.51055 26.1056C5.39857 25.768 5.30331 25.4237 5.16459 24.9641C10.1217 25.2065 15.1122 24.2405 19.7567 26.5017C20.7143 26.968 21.4831 26.968 22.4692 26.5736C25.1466 25.5006 27.9644 25.0126 30.8524 24.9992C34.048 24.9842 37.2451 24.9925 40.4407 24.9925C40.7432 24.9925 41.044 24.9925 41.4501 24.9925C41.4501 23.3045 41.3248 21.6683 41.4702 20.0572C42.3643 10.2283 50.2813 1.85008 60.0717 0.295778C72.2772 -1.64126 83.4582 6.10187 85.9234 18.2054C86.0888 19.0177 86.2025 19.8383 86.3412 20.6555V24.3257H86.3429ZM11.7428 55.0157C11.8849 55.4085 12.0203 55.7695 12.1456 56.1338C13.6414 60.4742 16.2052 64.0173 20.0508 66.5611C22.9856 68.5031 24.9494 71.107 25.7984 74.5365C25.8436 74.717 26.019 75.0045 26.1394 75.0061C27.7923 75.0379 29.4469 75.0279 31.1583 75.0279V70.0925C39.5014 69.77 47.8044 70.517 56.1592 69.5276V74.9794H61.2884C61.865 70.3432 63.6399 66.2853 66.5864 62.7238C69.2873 59.458 70.7747 55.6826 71.109 51.4676C71.3062 48.9857 71.0354 46.5456 70.2265 44.1172C69.9357 44.1857 69.6967 44.2392 69.4594 44.2977C66.5697 45.023 63.6383 45.2754 60.6985 44.7857C52.1515 43.3584 46.1966 38.6036 42.8407 30.6181C42.6267 30.1101 42.3827 29.983 41.873 29.9864C38.3983 30.0081 34.9254 30.0165 31.4508 29.9914C28.1082 29.968 24.926 30.6499 21.9979 32.256C21.0737 32.7624 20.467 32.6638 19.6414 32.1056C17.4018 30.5914 14.9016 29.8794 12.1172 30.0181C12.2141 30.3407 12.286 30.6048 12.3729 30.8638C13.1417 33.1819 13.9205 35.495 14.6726 37.8181C14.7662 38.1072 14.833 38.5033 14.7094 38.749C13.6832 40.8013 12.6102 42.8303 11.4654 45.0314H6.00024V55.0157H11.7411H11.7428ZM63.8505 4.97708C54.2055 4.96538 46.3303 12.8071 46.3103 22.4421C46.2902 32.0905 54.1219 39.9724 63.7553 40.0041C73.4354 40.0359 81.3356 32.1691 81.3373 22.4956C81.3407 12.8522 73.4906 4.98878 63.8489 4.97708H63.8505Z" fill="#E18D51"/>
<path d="M26.0577 44.9914H21.1875V40.061H26.0577V44.9914Z" fill="#E18D51"/>
<path d="M70.6909 14.582C69.1767 15.2237 67.7009 15.8488 66.1817 16.4922C65.5216 15.426 64.6274 14.7909 63.3422 15.0382C62.077 15.2806 61.2096 16.4789 61.3333 17.7223C61.462 19.0109 62.4932 19.9268 63.892 19.9903C67.0007 20.134 69.2987 21.573 70.6357 24.3841C72.4457 28.1897 70.6591 32.7072 66.7433 34.4035C63.0096 36.0214 58.4804 34.213 56.9628 30.4108C58.447 29.7774 59.9361 29.1423 61.467 28.4888C62.1355 29.5534 63.0246 30.1952 64.3132 29.9429C65.5767 29.6955 66.4458 28.4938 66.3171 27.2554C66.1817 25.9585 65.1606 25.0593 63.7533 24.9925C60.6831 24.8471 58.3935 23.4331 57.0464 20.6705C55.2013 16.8867 56.9645 12.2973 60.8386 10.6126C64.6408 8.95804 69.165 10.7396 70.6925 14.5836L70.6909 14.582Z" fill="#E18D51"/>
</svg>
