<svg width="89" height="89" viewBox="0 0 89 89" fill="none" xmlns="http://www.w3.org/2000/svg">
<path d="M57.3695 88.9673H0.0121903C0.0121903 68.7818 0.0139318 48.5963 0 28.4108C0 27.8135 0.167182 27.3955 0.592103 26.9724C5.91058 21.6835 11.2151 16.379 16.504 11.0605C16.9655 10.5955 17.4183 10.3865 18.0835 10.39C23.557 10.4161 29.0304 10.397 34.5039 10.4179C35.0577 10.4196 35.3747 10.2437 35.7108 9.80139C41.3026 2.42971 48.737 -0.926119 57.9164 0.219774C73.9554 2.22247 83.0842 19.9786 75.5453 34.2831C74.8487 35.6066 73.9815 36.8396 73.1752 38.1457C73.2466 38.2293 73.3319 38.3442 73.4312 38.4452C78.4606 43.5321 83.4917 48.6172 88.5246 53.6988C88.6587 53.8347 88.8415 53.9217 89 54.0315V54.2056C87.767 55.4124 86.5341 56.6193 85.4474 57.6833C80.0122 52.4032 74.638 47.184 69.2116 41.9108C65.8192 44.5909 61.8277 46.214 57.366 46.7747V88.9673H57.3695ZM5.26101 83.6906H52.1155V46.7904C44.7421 45.7316 38.9099 42.2138 34.9323 35.9201C30.9339 29.5933 30.3244 22.7859 32.5761 15.6824H20.8211V31.2999H5.26101V83.6906ZM41.9592 36.3485C43.6258 30.4257 47.4779 27.0229 53.7037 26.0146C49.1968 24.9139 46.6054 21.5442 46.9625 17.5388C47.3073 13.6797 50.5394 10.5729 54.3707 10.4179C58.2681 10.2611 61.7058 12.9465 62.4198 16.6855C62.8308 18.8449 62.4268 20.8337 61.199 22.6413C59.9608 24.4646 58.202 25.5252 56.039 26.0302C58.848 26.443 61.3331 27.4948 63.4438 29.3843C65.5405 31.2616 66.8466 33.6144 67.5415 36.3746C74.1208 30.1088 75.3277 18.6777 68.0117 10.9194C60.7428 3.21338 48.5977 3.27259 41.3932 11.0465C34.1765 18.8344 35.4722 30.2011 41.9609 36.3485H41.9592ZM46.9921 39.9603C52.0145 42.2086 57.0787 42.2991 62.1603 40.0927C62.3763 39.9986 62.5609 39.565 62.5644 39.2881C62.6323 34.6958 58.9699 31.1101 54.4108 31.2721C49.9665 31.4306 46.6002 35.3402 46.9921 39.9603ZM15.6385 19.7592C13.5574 21.828 11.4102 23.9613 9.38134 25.9797H15.6385V19.7592ZM57.3643 18.2423C57.3713 16.8387 56.201 15.6458 54.7939 15.6266C53.3902 15.6075 52.1851 16.769 52.1555 18.1744C52.1242 19.6111 53.331 20.8406 54.7678 20.8354C56.1731 20.8302 57.3556 19.6494 57.3643 18.2441V18.2423Z" fill="#E18D51"/>
<path d="M10.4844 57.2775V52.1646H46.8743V57.2775H10.4844Z" fill="#E18D51"/>
<path d="M10.502 62.5872H46.8919V67.6967H10.502V62.5872Z" fill="#E18D51"/>
<path d="M46.902 73.0398V78.1458H10.4824V73.0398H46.902Z" fill="#E18D51"/>
<path d="M31.26 41.7539V46.8582H10.4824V41.7539H31.26Z" fill="#E18D51"/>
</svg>
