<svg width="77" height="81" viewBox="0 0 77 81" fill="none" xmlns="http://www.w3.org/2000/svg">
<path d="M0.04837 0H62.229V28.1618C62.5108 28.2291 62.7106 28.2796 62.9146 28.3238C69.6128 29.7665 74.1343 33.7307 75.9492 40.3195C77.7726 46.9399 75.9135 52.6917 70.8473 57.352C70.4351 57.7306 70.2836 58.086 70.2858 58.6265C70.3026 64.0565 70.2963 69.4845 70.2963 74.9146C70.2963 75.1943 70.2963 75.4761 70.2963 75.863C67.5665 74.8115 64.9461 73.802 62.1996 72.7442V80.5991H61.5665C45.8021 80.5991 30.0398 80.6033 14.2754 80.578C13.8927 80.578 13.4195 80.3509 13.144 80.0754C8.97788 75.8946 4.84541 71.6822 0.683488 67.4992C0.203995 67.0176 0 66.5444 0 65.8589C0.0168243 44.2207 0.0147213 22.5804 0.0147213 0.942163C0.0147213 0.628809 0.0357517 0.315456 0.04837 0ZM24.9442 67.882V63.1438H49.4383V58.3468H11.4195V53.5918H45.5393C44.86 51.9725 44.2038 50.412 43.514 48.7653H11.409V44.0482H43.1544C43.2133 43.5624 43.2701 43.1481 43.3163 42.7317C44.0987 35.6213 49.7327 29.5751 56.759 28.3553C57.4025 28.2439 57.5392 28.0062 57.5371 27.4005C57.5161 20.1072 57.5245 12.8138 57.5224 5.52259C57.5224 5.27022 57.4972 5.01786 57.4845 4.76339H4.77811V63.4782H16.9821V75.8273H49.4173V67.8841H24.9442V67.882ZM59.8673 56.7506C66.5045 56.7653 71.8672 51.4089 71.8714 44.7569C71.8778 38.1471 66.5423 32.7759 59.9535 32.7549C53.31 32.7338 47.9115 38.0882 47.901 44.7107C47.8905 51.3605 53.2343 56.7359 59.8673 56.7527V56.7506ZM54.2269 68.9735C55.6801 68.4162 57.1144 67.9346 58.4877 67.3142C59.4635 66.8746 60.3131 66.8494 61.2995 67.3057C62.658 67.9325 64.0902 68.4014 65.5139 68.9461V60.5129C61.7159 61.7768 57.9872 61.7558 54.2269 60.5045V68.9714V68.9735ZM57.4866 72.78C54.8768 73.7915 52.3594 74.7673 49.84 75.7453C49.8505 75.7768 49.861 75.8083 49.8715 75.8399H57.4845V72.78H57.4866ZM12.2208 68.2395H8.14929C9.55622 69.5875 10.9064 70.8788 12.2208 72.1385V68.2395Z" fill="#E18D51"/>
<path d="M29.2299 39.1586C29.2299 38.0524 29.1984 36.9546 29.2426 35.8611C29.2657 35.268 29.0974 34.9546 28.5317 34.6623C26.1385 33.4341 24.9439 31.4089 24.7715 28.6813H29.4444C29.5117 28.9063 29.5664 29.1355 29.6505 29.3542C30.0228 30.3322 31.0554 30.8895 32.0585 30.6602C33.0554 30.4331 33.783 29.4405 33.6842 28.4436C33.5769 27.3795 32.7925 26.5866 31.7094 26.5698C27.6926 26.5046 25.2342 23.5183 24.843 20.6371C24.4623 17.8254 25.9492 14.9337 28.6095 13.6466C29.0827 13.4174 29.2615 13.1671 29.2426 12.6435C29.2026 11.4973 29.2299 10.3491 29.2299 9.16504H33.9407C33.9407 10.3385 33.9702 11.4847 33.9281 12.6266C33.9071 13.1524 34.0922 13.3943 34.5569 13.6298C36.986 14.8601 38.2352 16.8727 38.4139 19.655H33.7515C33.701 19.4931 33.6463 19.3206 33.5916 19.1482C33.2552 18.1261 32.2814 17.4994 31.2888 17.6676C30.2331 17.8464 29.4508 18.7949 29.5033 19.8338C29.558 20.8958 30.3656 21.7644 31.4844 21.7938C33.7494 21.8569 35.6211 22.6897 37.0007 24.492C39.6148 27.9095 38.4602 32.8116 34.5822 34.7128C34.0648 34.9652 33.9155 35.247 33.9323 35.7811C33.9681 36.881 33.9428 37.9809 33.9428 39.1502H29.232L29.2299 39.1586Z" fill="#E18D51"/>
<path d="M59.9305 52.1429C55.8443 52.1639 52.5047 48.8684 52.4815 44.7927C52.4605 40.736 55.7875 37.3711 59.8506 37.3395C63.9158 37.3101 67.2638 40.6329 67.2807 44.7128C67.2975 48.818 64.0314 52.1197 59.9284 52.1429H59.9305ZM62.5656 44.717C62.5509 43.2323 61.3059 42.0188 59.8338 42.0567C58.3869 42.0945 57.2008 43.3059 57.1987 44.7507C57.1966 46.2438 58.4037 47.4384 59.9053 47.4299C61.4174 47.4215 62.5803 46.2354 62.5635 44.717H62.5656Z" fill="#E18D51"/>
</svg>
