<svg width="81" height="80" viewBox="0 0 81 80" fill="none" xmlns="http://www.w3.org/2000/svg">
<path d="M37.6827 79.9978C37.6827 74.97 37.6367 69.9422 37.6931 64.9144C37.7913 56.1267 41.7726 49.6722 49.5075 45.5175C49.6182 45.459 49.7269 45.3922 49.9169 45.2815C45.2463 41.7827 42.8254 37.1873 43.076 31.3762C43.2661 26.952 45.1022 23.2172 48.4443 20.3054C55.0617 14.5339 64.9502 15.1919 70.6966 21.6694C76.6853 28.4226 76.0691 39.3722 67.8558 45.2752C68.0751 45.4005 68.2673 45.5175 68.4636 45.6261C75.079 49.2231 78.9454 54.7146 79.9209 62.2093C79.9397 62.3576 80.0086 62.4976 80.0545 62.6417V79.9978H37.6827ZM65.9048 75.2791C65.9048 74.2807 65.9048 73.347 65.9048 72.4132C65.9048 65.0919 65.9069 57.7685 65.8965 50.4471C65.8965 50.1359 65.8589 49.6346 65.6771 49.5427C64.3069 48.8596 62.8614 48.3876 61.2196 48.2351V70.5834H56.5009V48.0596C55.1014 48.492 53.869 48.8805 52.6303 49.2502C52.0267 49.4299 51.8157 49.7724 51.8178 50.4346C51.8449 58.4348 51.8345 66.4329 51.8366 74.4331C51.8366 74.7068 51.8637 74.9825 51.8804 75.2791H65.9048ZM49.0146 27.0857C46.4223 31.6456 47.8135 37.7596 52.1812 41.085C56.5573 44.4188 62.8134 43.976 66.7404 40.0615C70.6674 36.1491 70.7217 30.3109 68.6767 27.1233C62.1303 31.5704 55.5986 31.5767 49.0146 27.0836V27.0857ZM47.0866 53.1731C46.9863 53.1939 46.9257 53.1898 46.8986 53.2169C46.7649 53.3402 46.6333 53.4655 46.5142 53.6034C43.874 56.6468 42.4494 60.1769 42.3909 64.2104C42.3387 67.7238 42.3763 71.2393 42.3784 74.7548C42.3784 74.9261 42.416 75.0995 42.4348 75.2666H47.0866V53.1752V53.1731ZM70.6444 75.252H75.363C75.363 71.5798 75.386 67.964 75.3568 64.3483C75.3275 60.7492 74.1996 57.5032 72.0522 54.6185C71.6595 54.0921 71.2084 53.6096 70.6465 52.9412V75.252H70.6444ZM52.1499 23.4219C55.8409 26.4946 62.3329 26.4695 65.5623 23.4115C62.1428 20.3325 55.8158 20.2343 52.1499 23.4219Z" fill="#E18D51"/>
<path d="M1.21443e-06 79.9979C1.21443e-06 77.0276 1.21443e-06 74.0572 1.21443e-06 71.0848C-0.00208761 64.6805 2.69041 59.7592 8.11718 56.3461C8.20491 56.2918 8.28638 56.2249 8.42633 56.1247C4.62049 53.1042 2.64446 49.1919 2.88258 44.3207C3.06849 40.5587 4.6372 37.3816 7.46547 34.8834C13.0364 29.96 21.4648 30.4029 26.4842 35.7962C31.7084 41.4089 31.5079 50.8253 24.5834 56.1372C24.9364 56.3649 25.2769 56.5738 25.6028 56.8014C30.3298 60.0955 32.8364 64.6199 32.9742 70.3851C33.0515 73.5894 32.9888 76.7957 32.9909 80H1.21443e-06V79.9979ZM28.1741 75.2917C28.1741 73.1215 28.3767 70.9971 28.1344 68.9229C27.4827 63.3102 22.645 58.9488 17.0824 58.7441C11.2546 58.5289 6.10564 62.3619 5.0299 68.0017C4.61004 70.1992 4.78341 72.5094 4.69359 74.7695C4.68733 74.9387 4.73537 75.1121 4.76044 75.2917H28.1741ZM7.65346 45.9082C7.77879 49.7809 11.4677 54.393 17.1639 54.015C21.494 53.7267 25.7093 49.5052 25.2644 45.902C22.2585 45.7516 19.0564 46.4868 16.4934 44.0471C13.922 46.4952 10.7157 45.7453 7.65137 45.9082H7.65346ZM8.43051 41.1875C9.6838 41.1875 10.7512 41.2188 11.8144 41.1791C12.9653 41.1373 13.9199 40.4125 14.0515 39.3618C14.1664 38.4469 14.0745 37.507 14.0745 36.4688C11.547 37.25 9.72558 38.7561 8.43051 41.1875ZM18.8558 36.45C18.8558 37.3566 18.8162 38.1545 18.8642 38.9482C18.9373 40.1431 19.729 41.0454 20.9133 41.1415C22.0664 41.2355 23.234 41.1624 24.5479 41.1624C23.2716 38.7728 21.4627 37.2542 18.8558 36.45Z" fill="#E18D51"/>
<path d="M42.334 0V16.3242H37.7052V8.16105C33.5045 12.3617 29.354 16.5143 25.2871 20.5833C24.0777 19.378 22.9998 18.3044 21.9053 17.214C25.9367 13.1868 30.106 9.01955 34.2774 4.85026C34.2419 4.78341 34.2064 4.71657 34.1709 4.64973H25.9952V0H42.334Z" fill="#E18D51"/>
</svg>
