<svg width="84" height="72" viewBox="0 0 84 72" fill="none" xmlns="http://www.w3.org/2000/svg">
<path d="M83.2623 39.1012C83.1581 39.1773 83.0299 39.2315 82.9539 39.3293C79.2078 44.0353 74.7059 47.9074 69.7783 51.3104C69.6893 51.3713 69.6068 51.4429 69.4721 51.5493C72.8469 54.9133 76.2087 58.2685 79.4966 61.5456C75.9915 65.0529 72.5711 68.4711 69.0443 72.0001C68.7641 71.6765 68.4492 71.266 68.0866 70.9034C64.5858 67.3939 61.0786 63.891 57.5735 60.3859C57.3433 60.1557 57.0414 59.9581 56.9089 59.6801C56.2683 58.3315 55.3518 58.5487 54.1574 58.933C44.3067 62.0972 34.621 61.4218 25.1242 57.4737C15.2843 53.3801 7.09489 47.0344 0 39.0274C0.76226 38.1609 1.45937 37.3053 2.22163 36.5169C8.84092 29.6609 16.3745 24.0993 25.2306 20.4639C31.5285 17.8774 38.0696 16.5918 44.9017 17.1868C51.5275 17.7645 57.6929 19.8688 63.5108 23.0221C70.8186 26.9811 77.2402 32.0715 82.7346 38.3173C82.8888 38.491 83.0864 38.6256 83.2645 38.7777V39.1034L83.2623 39.1012ZM6.63449 38.9557C6.76045 39.1056 6.83646 39.2142 6.92984 39.3032C12.3699 44.676 18.455 49.1322 25.4391 52.3094C34.9076 56.618 44.5521 57.3173 54.4072 53.7384C54.9349 53.5473 55.7384 52.2638 55.6624 51.7057C55.6494 51.608 55.5799 51.5037 55.5082 51.4321C54.3094 50.2246 53.1063 49.0215 51.9162 47.8292C44.2024 53.2997 35.2616 51.3256 30.2342 46.8346C25.4 42.5151 22.0317 33.7242 27.1743 24.931C19.278 28.2016 12.6153 33.0401 6.63666 38.9557H6.63449ZM41.6073 46.283C48.3699 46.2982 53.823 40.8864 53.8382 34.152C53.8534 27.4176 48.4155 21.9471 41.6833 21.9211C34.9619 21.895 29.4632 27.3611 29.4567 34.076C29.4502 40.8386 34.8555 46.2678 41.6073 46.283ZM56.1054 24.9202C59.8429 31.6611 59.5736 38.1088 55.3475 44.4088C56.5376 45.5859 57.6777 46.7412 58.8613 47.8531C59.0328 48.0138 59.4498 48.0638 59.6843 47.9813C61.4977 47.3319 63.2828 47.3667 65.0897 48.0095C65.3763 48.1116 65.8454 48.0486 66.0908 47.8705C68.2147 46.3286 70.356 44.8019 72.3909 43.1471C73.9327 41.894 75.3291 40.4585 76.8233 39.0752C70.7317 33.0618 64.0451 28.2016 56.1032 24.9223L56.1054 24.9202ZM72.5559 61.6585C72.5494 61.6433 72.5451 61.5825 72.5103 61.5478C69.6806 58.7137 66.8639 55.8688 64.0103 53.0587C63.0591 52.1227 61.5563 52.1704 60.6355 53.0652C59.6865 53.9881 59.6518 55.4888 60.5965 56.5008C61.2784 57.2326 62.0059 57.9211 62.7138 58.6312C64.8725 60.7898 67.0311 62.9507 69.1485 65.0702C70.2908 63.9258 71.3962 62.8204 72.5559 61.6585Z" fill="#E18D51"/>
<path d="M58.5462 2.49316C60.1185 3.0274 61.6126 3.53557 63.1588 4.06112C62.1142 7.14708 61.0935 10.1592 60.0381 13.2777C58.4919 12.7544 56.9826 12.244 55.4189 11.7163C56.4722 8.61297 57.4994 5.5813 58.5462 2.49534V2.49316Z" fill="#E18D51"/>
<path d="M12.9521 18.3422C11.5622 19.2304 10.2462 20.0708 8.84759 20.9656C7.10373 18.2357 5.37941 15.5363 3.59863 12.7501C4.95593 11.8814 6.28718 11.0301 7.70528 10.1245C9.46 12.8717 11.193 15.5885 12.9521 18.3443V18.3422Z" fill="#E18D51"/>
<path d="M79.6921 12.7347C77.9091 15.5275 76.1957 18.2117 74.4475 20.9502C73.0641 20.0663 71.7329 19.215 70.3408 18.3268C72.0999 15.5709 73.822 12.8715 75.5854 10.1091C76.9818 11.0017 78.3283 11.8639 79.6943 12.7347H79.6921Z" fill="#E18D51"/>
<path d="M39.2578 0H44.0355V9.65096H39.2578V0Z" fill="#E18D51"/>
<path d="M20.1445 4.04571C21.6908 3.52017 23.1675 3.01633 24.7572 2.47559C25.7931 5.52463 26.8225 8.54761 27.8887 11.6857C26.3642 12.2091 24.8766 12.7216 23.2804 13.2688C22.2424 10.2155 21.213 7.18814 20.1445 4.04354V4.04571Z" fill="#E18D51"/>
<path d="M41.6439 41.4096C37.5851 41.4096 34.3167 38.126 34.3341 34.0693C34.3493 30.0756 37.6524 26.7898 41.6461 26.7898C45.6746 26.7898 48.9755 30.1146 48.9582 34.1518C48.9408 38.1607 45.6637 41.4096 41.6439 41.4074V41.4096ZM41.6657 36.532C43.0078 36.5233 44.0936 35.4244 44.0806 34.091C44.0675 32.775 42.9296 31.6522 41.6222 31.6674C40.3084 31.6826 39.1986 32.8162 39.2095 34.1323C39.2203 35.47 40.317 36.5406 41.6635 36.532H41.6657Z" fill="#E18D51"/>
</svg>
