<svg xmlns="http://www.w3.org/2000/svg" width="45" height="45" viewBox="0 0 45 45"><g transform="translate(-1 -1)"><path d="M45.787,35.688,37.409,27.31l.607-.607.213.213a.725.725,0,0,0,1.026,0l2.177-2.177a.725.725,0,0,0,0-1.026L37.29,19.57V6.081A5.087,5.087,0,0,0,32.21,1H4.629A3.633,3.633,0,0,0,1,4.629v5.806a.726.726,0,0,0,.726.726H6.806v31.21A3.633,3.633,0,0,0,10.435,46H36.565a3.633,3.633,0,0,0,3.629-3.629V40.919a.726.726,0,0,0-.726-.726H37.29v-7.32l5.656,5.656a.725.725,0,0,0,1.026,0l1.815-1.815A.725.725,0,0,0,45.787,35.688ZM32.935,29.732l-2.6-2.6,4.054-4.054,2.6,2.6Zm-.3,1.752-1.151,1.151L27.43,28.581l1.151-1.151Zm6.107-6.107-4.054-4.054,1.151-1.151,4.054,4.054ZM6.806,9.71H2.452V4.629a2.177,2.177,0,0,1,4.355,0ZM38.742,42.371a2.18,2.18,0,0,1-2.177,2.177H13.337a3.61,3.61,0,0,0,.727-2.177v-.726H38.742Zm-2.9-2.177h-22.5a.726.726,0,0,0-.726.726v1.452a2.177,2.177,0,0,1-4.355,0V4.629a3.591,3.591,0,0,0-.745-2.177h24.7a3.633,3.633,0,0,1,3.629,3.629V18.419a.724.724,0,0,0-.513.213l-2.177,2.177a.725.725,0,0,0,0,1.026l.213.213L29.306,26.1l-.213-.213a.725.725,0,0,0-1.026,0L25.89,28.067a.725.725,0,0,0,0,1.026l5.081,5.081a.725.725,0,0,0,1.026,0L34.174,32a.725.725,0,0,0,0-1.026l-.213-.213.607-.607,1.27,1.27Zm7.621-3.2-7.865-7.865.788-.788L44.248,36.2Z" transform="translate(0 0)" fill="#d6a461"/><path d="M14,19H38.976v1.514H14Z" transform="translate(-4.024 -4.954)" fill="#d6a461"/><path d="M14,27H35.949v1.514H14Z" transform="translate(-3.919 -7.156)" fill="#d6a461"/><path d="M14,23H38.976v1.514H14Z" transform="translate(-4.024 -6.055)" fill="#d6a461"/><path d="M14,11H38.976v1.514H14Z" transform="translate(-4.024 -2.283)" fill="#d6a461"/><path d="M14,7H38.976V8.514H14Z" transform="translate(-4.024 -1.459)" fill="#d6a461"/><path d="M14,15H38.976v1.514H14Z" transform="translate(-4.024 -3.853)" fill="#d6a461"/><path d="M14,31H34.435v1.514H14Z" transform="translate(-3.876 -8.257)" fill="#d6a461"/><path d="M19.812,35a6.812,6.812,0,1,0,6.812,6.812A6.82,6.82,0,0,0,19.812,35Zm0,12.11a5.3,5.3,0,1,1,5.3-5.3A5.3,5.3,0,0,1,19.812,47.11Z" transform="translate(-3.443 -9.754)" fill="#d6a461"/><path d="M20.784,39a3.784,3.784,0,1,0,3.784,3.784A3.789,3.789,0,0,0,20.784,39Zm0,6.055a2.271,2.271,0,1,1,2.271-2.271A2.273,2.273,0,0,1,20.784,45.055Z" transform="translate(-4.483 -10.646)" fill="#d6a461"/><path d="M37.541,48.757a.757.757,0,0,0-1.387-.42l-.254.381A3.479,3.479,0,0,1,33,50.271v1.514a4.991,4.991,0,0,0,3.491-1.419,3.028,3.028,0,0,0,2.564,1.419h3.027V50.271H39.055A1.515,1.515,0,0,1,37.541,48.757Z" transform="translate(-9.013 -13.015)" fill="#d6a461"/></g></svg>