<svg xmlns="http://www.w3.org/2000/svg" width="50.782" height="50.782" viewBox="0 0 50.782 50.782"><g transform="translate(-1 -1)"><path d="M28.209,35.4a2.42,2.42,0,0,0,0-3.276,2.42,2.42,0,0,0,0-3.276,2.447,2.447,0,0,0-1.818-4.1H23.934V14.105h2.457v.819a.819.819,0,0,0,.819.819h3.276a.819.819,0,0,0,.819-.819v-.819h2.457a.819.819,0,0,0,.819-.819V3.457a.819.819,0,0,0-.819-.819H31.305V1.819A.819.819,0,0,0,30.486,1H27.21a.819.819,0,0,0-.819.819v.819H14.924V1.819A.819.819,0,0,0,14.105,1H10.829a.819.819,0,0,0-.819.819v.819H7.553a.819.819,0,0,0-.819.819v9.829a.819.819,0,0,0,.819.819H10.01v.819a.819.819,0,0,0,.819.819h3.276a.819.819,0,0,0,.819-.819v-.819h2.457V24.753H14.444a3.594,3.594,0,0,0-2.556,1.058,1.963,1.963,0,0,1-1.4.58H7.553v-.819a.819.819,0,0,0-.819-.819H1.819A.819.819,0,0,0,1,25.572V38.677a.819.819,0,0,0,.819.819H6.733a.819.819,0,0,0,.819-.819v-.819h3.674a3.261,3.261,0,0,1,1.818.55l.393.262a4.9,4.9,0,0,0,2.727.826h1.217v4.1a.819.819,0,0,0,.819.819h4.914a.819.819,0,0,0,.819-.819V39.5h2.457a2.447,2.447,0,0,0,1.818-4.1ZM32.944,4.276v8.191H31.305V4.276ZM28.029,2.638h1.638V14.105H28.029ZM8.372,12.467V4.276H10.01v8.191Zm4.914,1.638H11.648V2.638h1.638ZM5.914,37.858H2.638V26.391H5.914Zm21.3-7.372a.82.82,0,0,1-.819.819H20.658V29.667h5.733A.82.82,0,0,1,27.21,30.486ZM19.019,27.21v4.914a.819.819,0,0,1-1.638,0V27.21a.819.819,0,1,1,1.638,0Zm.235,7.124a2.455,2.455,0,0,0,1.252-1.391h5.885a.819.819,0,0,1,0,1.638H19.838a.813.813,0,0,1-.584-.247ZM27.21,27.21a.82.82,0,0,1-.819.819H20.658V27.21a2.43,2.43,0,0,0-.151-.819h5.884A.82.82,0,0,1,27.21,27.21ZM14.924,4.276H26.391v8.191H14.924ZM22.3,14.105V24.753H19.019V14.105ZM7.553,28.029H9.191V36.22H7.553Zm6.794,9.278-.393-.262a4.9,4.9,0,0,0-2.727-.826h-.4V28a3.575,3.575,0,0,0,2.217-1.025,1.963,1.963,0,0,1,1.4-.58h1.45a2.43,2.43,0,0,0-.151.819v4.914A2.452,2.452,0,0,0,17.5,34.466a2.439,2.439,0,0,0,.524.935,2.382,2.382,0,0,0-.488,2.457H16.164A3.261,3.261,0,0,1,14.347,37.307ZM22.3,42.772H19.019V39.5H22.3Zm4.1-4.914H19.838a.819.819,0,1,1,0-1.638h6.553a.819.819,0,0,1,0,1.638Z" fill="#d6a461"/><path d="M57.115,54.1H56.3V50.819A.819.819,0,0,0,55.477,50H37.457a.819.819,0,0,0-.819.819V54.1h-.819a.819.819,0,0,0-.819.819v4.914a.819.819,0,0,0,.819.819h21.3a.819.819,0,0,0,.819-.819V54.914A.819.819,0,0,0,57.115,54.1ZM38.276,51.638H54.658V54.1H38.276ZM56.3,59.01H36.638V55.733H56.3Z" transform="translate(-6.152 -8.866)" fill="#d6a461"/><path d="M37.062,41.058a.819.819,0,0,0,.178.893l4.1,4.1,1.158-1.158-2.7-2.7h2.937a.819.819,0,0,0,.819-.819V36.8l2.7,2.7a.818.818,0,0,0,1.158,0l2.7-2.7v4.575a.819.819,0,0,0,.819.819h2.937l-2.7,2.7,1.158,1.158,4.1-4.1a.819.819,0,0,0-.579-1.4h-4.1V34.819a.819.819,0,0,0-1.4-.579l-3.516,3.516L43.312,34.24a.819.819,0,0,0-1.4.579v5.733h-4.1A.82.82,0,0,0,37.062,41.058Z" transform="translate(-6.514 -5.971)" fill="#d6a461"/></g></svg>