<svg xmlns="http://www.w3.org/2000/svg" width="48.352" height="48.352" viewBox="0 0 48.352 48.352"><g transform="translate(-1 -1)"><path d="M48.572,43.113h-.78v-2.34a.78.78,0,0,0-.78-.78h-.78V36.874a.78.78,0,0,0-.78-.78h-.78V25.176h.78a.78.78,0,0,0,.78-.78V22.738a13.363,13.363,0,0,0,1.054-1.461h1.286a.78.78,0,0,0,.487-1.389l-.739-.591A13.228,13.228,0,0,0,28.475,3.42L25.663,1.171a.782.782,0,0,0-.974,0L1.293,19.888a.78.78,0,0,0,.487,1.389h2.34V24.4a.78.78,0,0,0,.78.78h.78V36.094H4.9a.78.78,0,0,0-.78.78v3.119H3.34a.78.78,0,0,0-.78.78v2.34H1.78a.78.78,0,0,0-.78.78v4.679a.78.78,0,0,0,.78.78H48.572a.78.78,0,0,0,.78-.78V43.893a.78.78,0,0,0-.78-.78ZM38.434,39.993v-2.34h6.239v2.34Zm-9.358,0h-7.8V34.534a3.9,3.9,0,1,1,7.8,0Zm-3.9-10.918a5.466,5.466,0,0,0-5.459,5.459v5.459H13.478V36.874a.78.78,0,0,0-.78-.78h-.78V25.176h.78a.78.78,0,0,0,.78-.78V21.277h11.4a13.292,13.292,0,0,0,1.143,1.56H20.5a.78.78,0,0,0-.78.78v3.119a.78.78,0,0,0,.78.78h9.358a.78.78,0,0,0,.78-.78v-.43a12.953,12.953,0,0,0,7.8.964v8.825h-.78a.78.78,0,0,0-.78.78v3.119H30.635V34.534A5.466,5.466,0,0,0,25.176,29.075ZM22.95,15.9a3.882,3.882,0,0,1,.961-6.868A12.907,12.907,0,0,0,22.95,15.9Zm4.639,8.5a13.413,13.413,0,0,0,1.486,1.069v.491h-7.8V24.4Zm12.4,11.7V26.9a13.182,13.182,0,0,0,3.119-1.45V36.094Zm7.774-21.849A11.686,11.686,0,1,1,36.081,2.56,11.7,11.7,0,0,1,47.767,14.245ZM25.176,2.778l2.053,1.643a13.307,13.307,0,0,0-2.377,2.834A5.443,5.443,0,0,0,23.34,17.82a13.2,13.2,0,0,0,.693,1.9H4Zm-13.258,18.5v2.34H5.679v-2.34Zm-4.679,3.9h3.119V36.094H7.239ZM5.679,37.654h6.239v2.34H5.679Zm-1.56,3.9H46.232v1.56H4.119Zm43.672,6.239H2.56V44.672H47.792Z" transform="translate(0)" fill="#d6a461"/><path d="M33.2,15.469l5.459,5.459a.779.779,0,0,0,1.1,0l2.34-2.34a.779.779,0,0,0,0-1.1l-.229-.229.652-.652,6.662,6.662a.779.779,0,0,0,1.1,0l1.95-1.95a.779.779,0,0,0,0-1.1l-6.662-6.662.652-.652.229.229a.779.779,0,0,0,1.1,0l2.34-2.34a.779.779,0,0,0,0-1.1L44.437,4.228a.779.779,0,0,0-1.1,0L41,6.568a.779.779,0,0,0,0,1.1l.229.229-4.356,4.356-.229-.229a.779.779,0,0,0-1.1,0l-2.34,2.34a.779.779,0,0,0,0,1.1Zm17.386,5.3-.847.847L43.624,15.5l.847-.847Zm-6.7-14.885,4.356,4.356-1.237,1.237L42.649,7.119ZM42.326,9l2.8,2.8-4.356,4.356-2.8-2.8Zm-6.239,4.679,4.356,4.356-1.237,1.237-4.356-4.356Z" transform="translate(-7.037 -0.66)" fill="#d6a461"/></g></svg>