<svg xmlns="http://www.w3.org/2000/svg" width="48.243" height="48.241" viewBox="0 0 48.243 48.241"><g transform="translate(0.011 0.02)"><g transform="translate(-0.011 -0.02)"><path d="M12.407,31.1a1.5,1.5,0,0,0-.569-1.666,6.2,6.2,0,0,1-2.215-3.344c-.037-.124-.076-.248-.116-.37,0-.013-.024-.018.055.04a9.988,9.988,0,0,1-1.413-.334,3.1,3.1,0,0,1-.805-5.258.521.521,0,0,0,.206-.652c-.431-1.473-.895-2.94-1.244-4.432a3.475,3.475,0,0,1,3.365-4.208c.842-.011,1.685,0,2.528,0a1.32,1.32,0,0,0,1.448-1.028,2.828,2.828,0,0,1,2.924-2.087c1.248,0,2.5-.071,3.741.04a6.17,6.17,0,0,1,4.636,2.793,16.946,16.946,0,0,1,1.785-1.4,2.509,2.509,0,0,0,1.293-2.681C27.911,5.182,28,3.829,28,2.484a2.336,2.336,0,0,1,2.479-2.5l15.312,0a2.314,2.314,0,0,1,2.442,2.439V24.008a2.322,2.322,0,0,1-2.451,2.431H30.465A2.332,2.332,0,0,1,28,23.971c0-2.787,0-5.575.006-8.363a.807.807,0,0,0-.336-.74c-.534-.389-1.043-.818-1.653-1.3.16,2.237-.994,4.049-1.581,6.015,1.669,1.05,2.273,2.167,1.951,3.59-.347,1.526-1.333,2.3-3.22,2.528a7.283,7.283,0,0,1-2.776,4.134c-.108.081-.135.3-.152.467-.025.239-.007.486-.007.8h.536c1.537.029,3.085-.045,4.61.112a8.483,8.483,0,0,1,7.2,7.2,14.375,14.375,0,0,1,.1,1.6q.015,3.622,0,7.244c0,.7-.271.972-.963.972H.937c-.663,0-.94-.28-.941-.946C0,44.647-.02,42.022,0,39.4a8.5,8.5,0,0,1,7.32-8.182c1.49-.166,3.007-.084,4.512-.114C12.018,31.1,12.208,31.1,12.407,31.1ZM31.114,46.644c0-2.2.006-4.354,0-6.507a13.3,13.3,0,0,0-.1-1.549,6.889,6.889,0,0,0-5.89-5.812c-1.592-.145-3.2-.074-4.806-.117a.582.582,0,0,0-.6.35,3.717,3.717,0,0,1-3.389,1.982A3.7,3.7,0,0,1,12.945,33a.588.588,0,0,0-.6-.342c-1.232.016-2.464,0-3.7.008a7.015,7.015,0,0,0-7.088,7.093c0,2.139,0,4.279,0,6.418v.451H6.242V41.235H7.791v5.383H24.9V41.245h1.568v5.4ZM26.161,11.651c1,.805,1.937,1.577,2.9,2.317a1.226,1.226,0,0,1,.515,1.075c-.015,2.934-.009,5.867-.007,8.8,0,.76.265,1.029,1.016,1.03H45.655c.75,0,1.016-.271,1.016-1.031V2.693c0-.921-.229-1.147-1.146-1.147H30.647c-.823,0-1.079.253-1.079,1.07,0,1.9-.011,3.792.007,5.689a1.177,1.177,0,0,1-.51,1.029C28.107,10.075,27.169,10.846,26.161,11.651ZM12.554,15.944c-.491.652-.979,1.274-1.433,1.92a1.24,1.24,0,0,0-.216.657c-.017,1.815-.024,3.629,0,5.445a6.814,6.814,0,0,0,.2,1.581,5.439,5.439,0,0,0,5.536,3.987,5.351,5.351,0,0,0,5.027-4.588,41.043,41.043,0,0,0,.105-4.268A1.865,1.865,0,0,0,19.8,18.654a15.2,15.2,0,0,1-2.261-.258A11.011,11.011,0,0,1,12.554,15.944ZM22.983,18.95c.444-1.221.89-2.316,1.241-3.44a4.687,4.687,0,0,0-3.753-6.07,28.226,28.226,0,0,0-3.733-.11c-1-.014-1.322.226-1.646,1.157a2.81,2.81,0,0,1-2.723,1.952c-.875,0-1.75-.012-2.625.007a1.909,1.909,0,0,0-1.867,2.423c.371,1.439.8,2.865,1.2,4.3a1.331,1.331,0,0,0,.144.266,2.9,2.9,0,0,0,.1-1.1,1.73,1.73,0,0,1,.426-1.291c.643-.813,1.251-1.653,1.874-2.482.557-.739.929-.759,1.618-.118a9.559,9.559,0,0,0,4.912,2.48,6.166,6.166,0,0,0,1.25.159A3.644,3.644,0,0,1,22.983,18.95ZM14.019,30.725a2.34,2.34,0,0,0,1.138,2.366A2.17,2.17,0,0,0,17.662,33a2.325,2.325,0,0,0,.988-2.263A7.242,7.242,0,0,1,14.019,30.725ZM9.3,24.077V21.016a1.531,1.531,0,0,0,0,3.061Zm14.062,0a1.57,1.57,0,0,0,1.526-1.664,1.481,1.481,0,0,0-1.526-1.367Zm13.977,11.7c-.539,0-1.007,0-1.476,0a.794.794,0,0,1-.582-1.391q2.286-2.286,4.57-4.57a.763.763,0,0,1,1.2-.006q2.315,2.289,4.605,4.6a.651.651,0,0,1,.159.875,1.338,1.338,0,0,1-.764.461,9.617,9.617,0,0,1-1.482.02V47.185c0,.792-.246,1.036-1.046,1.036H38.435c-.875,0-1.1-.224-1.1-1.076V36.358Zm3.119-4.181c-.842.84-1.728,1.724-2.587,2.583.928.132,1.036.261,1.036,1.291V46.622h3.1V35.466c0-1.035.1-1.157,1.031-1.289ZM37.743,3.061c2.76.131,4.668,1.128,5.83,3.28a5.758,5.758,0,0,1-.2,6.261,7.6,7.6,0,0,0-1.366,4.933,1.973,1.973,0,0,1-.1.951,2.85,2.85,0,0,1-.862,1.232,1.193,1.193,0,0,0-.593,1.252,2.31,2.31,0,0,1-2.319,2.359,2.344,2.344,0,0,1-2.35-2.386,3.44,3.44,0,0,1,0-.437.523.523,0,0,0-.335-.6,2.233,2.233,0,0,1-1.221-2.059c-.012-.681.016-1.361-.043-2.042a6.558,6.558,0,0,0-1.247-3.061A6.181,6.181,0,0,1,35.689,3.6,13.537,13.537,0,0,1,37.743,3.061ZM40.5,15.54a9.593,9.593,0,0,1,1.7-4.03A4.622,4.622,0,0,0,38.11,4.672,4.428,4.428,0,0,0,34.031,7.1a4.4,4.4,0,0,0,.212,4.779,8.613,8.613,0,0,1,1.464,3.4.377.377,0,0,0,.266.248C37.464,15.545,38.952,15.54,40.5,15.54Zm-4.7,1.588c0,.263-.011.486,0,.71a.777.777,0,0,0,.836.81q1.5.018,3,0a.771.771,0,0,0,.811-.785c.015-.236,0-.475,0-.733Zm1.551,3.112c.041.551-.171,1.147.449,1.41a.955.955,0,0,0,.792-.085c.466-.33.3-.85.281-1.325ZM39.7,9.3H41.2a2.97,2.97,0,0,0-3.068-3.034V7.751A1.671,1.671,0,0,1,39.7,9.3Z" transform="translate(0.011 0.02)" fill="#d6a461"/></g></g></svg>