<svg xmlns="http://www.w3.org/2000/svg" width="49.273" height="49.273" viewBox="0 0 49.273 49.273"><g transform="translate(-1 -1)"><path d="M32.789,51.51H23.581l1.028-1.028a.794.794,0,0,0,0-1.124l-9.537-9.537a.791.791,0,0,0-.562-.233H2.589V38H1V52.305H2.589V50.716H9.458l8.523,6.973a.793.793,0,0,0,.5.18H32.789a3.179,3.179,0,0,0,0-6.358Zm0,4.768H18.768l-8.523-6.973a.793.793,0,0,0-.5-.18H2.589V41.179H14.181l8.742,8.742-2.055,2.055L16.662,47.77l-1.124,1.124,4.768,4.768a.794.794,0,0,0,1.124,0l.562-.562h10.8a1.589,1.589,0,1,1,0,3.179Z" transform="translate(0 -7.595)" fill="#d6a461"/><path d="M52.378,6.563V8.153H45.51L36.987,1.18a.8.8,0,0,0-.5-.18H22.179a3.179,3.179,0,0,0,0,6.358h9.208L30.359,8.385a.794.794,0,0,0,0,1.124L39.9,19.046a.791.791,0,0,0,.562.233H52.378v1.589h1.589V6.563ZM40.787,17.689,32.045,8.947,34.1,6.892,38.306,11.1,39.43,9.975,34.662,5.206a.794.794,0,0,0-1.124,0l-.562.562h-10.8a1.589,1.589,0,0,1,0-3.179H36.2l8.523,6.973a.793.793,0,0,0,.5.18h7.153v7.947Z" transform="translate(-3.695 0)" fill="#d6a461"/><path d="M29.331,19A10.331,10.331,0,1,0,39.663,29.331,10.343,10.343,0,0,0,29.331,19Zm0,19.073a8.742,8.742,0,1,1,8.742-8.742A8.752,8.752,0,0,1,29.331,38.073Z" transform="translate(-3.695 -3.695)" fill="#d6a461"/><path d="M33.331,23.795A.8.8,0,0,0,32.537,23H27.768a.8.8,0,0,0-.795.795v3.179H23.795a.8.8,0,0,0-.795.795v4.768a.794.794,0,0,0,.795.795h3.179V36.51a.794.794,0,0,0,.795.795h4.768a.794.794,0,0,0,.795-.795V33.331H36.51a.794.794,0,0,0,.795-.795V27.768a.8.8,0,0,0-.795-.795H33.331Zm2.384,4.768v3.179H32.537a.794.794,0,0,0-.795.795v3.179H28.563V32.537a.794.794,0,0,0-.795-.795H24.589V28.563h3.179a.8.8,0,0,0,.795-.795V24.589h3.179v3.179a.8.8,0,0,0,.795.795Z" transform="translate(-4.516 -4.516)" fill="#d6a461"/></g></svg>