<svg xmlns="http://www.w3.org/2000/svg" width="47.701" height="47.806" viewBox="0 0 47.701 47.806"><g transform="translate(-0.015 -0.013)"><g transform="translate(0.015 0.013)"><path d="M28.754,27.777c1.719,1.71,3.424,3.4,5.124,5.1q3.979,3.972,7.948,7.954a4.045,4.045,0,1,1-5.7,5.736c-1.62-1.6-3.219-3.216-4.828-4.825l-8.251-8.26a15.572,15.572,0,0,1-8.054,2.032c.282.493.511.946.8,1.359a.679.679,0,0,0,.493.162c1.971.011,3.941,0,5.913.007a2.3,2.3,0,0,1,2.446,2.429q.009,3,0,6.01a2.286,2.286,0,0,1-2.344,2.338H2.345A2.28,2.28,0,0,1,.021,45.511q-.012-3.076,0-6.152A2.289,2.289,0,0,1,2.34,37.045q3.028-.009,6.056.007a.583.583,0,0,0,.6-.34c.365-.691.769-1.362,1.177-2.079-.126-.063-.216-.117-.312-.158C4.317,32.168.975,28.034.175,22.1A14.834,14.834,0,0,1,5.557,8.316,1.749,1.749,0,0,0,6.222,7.1,7.323,7.323,0,0,1,11.747.6a11.486,11.486,0,0,1,9,.7,7.369,7.369,0,0,1,3.9,6.137,1,1,0,0,0,.329.622,15.138,15.138,0,0,1,5.692,10.066,14.975,14.975,0,0,1-1.678,9.2C28.921,27.456,28.851,27.582,28.754,27.777Zm-4.2-18.094c-.44.875-.8,1.674-1.24,2.422-.2.335-.212.5.055.8a10.4,10.4,0,0,1,2.671,8.93A10.774,10.774,0,1,1,4.87,17.862,11.091,11.091,0,0,1,7.5,12.811c.1-.107.2-.33.154-.425-.44-.878-.913-1.739-1.371-2.6A13.712,13.712,0,0,0,11,33.169c.173-.3.347-.6.525-.905.464-.79,1.142-.782,1.609.018.234.4.49.791.689,1.208a.651.651,0,0,0,.673.425,24.308,24.308,0,0,0,3.345-.192,13.806,13.806,0,0,0,8.471-22.084C25.775,10.942,25.134,10.324,24.554,9.682ZM12.335,34.029c-.114.184-.2.312-.278.447-.642,1.125-1.308,2.238-1.914,3.382a1.271,1.271,0,0,1-1.3.745c-2.082-.032-4.164-.014-6.248-.013-.775,0-1.028.257-1.029,1.041v5.527c0,.879.232,1.113,1.106,1.113H22.086c.743,0,1.008-.266,1.008-1.014V39.731c0-.919-.219-1.142-1.121-1.143-2.13,0-4.26-.007-6.39.006a.967.967,0,0,1-.937-.533c-.42-.755-.852-1.5-1.281-2.252C13.033,35.231,12.7,34.656,12.335,34.029Zm12.1-1.286a4.089,4.089,0,0,1,.384.315Q26.9,35.126,28.97,37.2l8.256,8.252a2.44,2.44,0,0,0,2.9.569,2.474,2.474,0,0,0,.617-4.061q-6.269-6.3-12.561-12.573a2.307,2.307,0,0,0-.213-.18ZM19.815,7.418c-.1.065-.166.106-.229.154a8.128,8.128,0,0,1-4.257,1.711c-.986.081-1.982.056-2.973.077a2.211,2.211,0,0,0-2.29,2.019,11.916,11.916,0,0,0,.185,3.237,5.332,5.332,0,0,0,10.424-.583c.148-1.313.085-2.651.1-3.978A3.952,3.952,0,0,0,19.815,7.418Zm2.57,3.2c.06-.1.1-.155.123-.211A5.962,5.962,0,0,0,19.356,2.34a10.756,10.756,0,0,0-5.946-.555,6.208,6.208,0,0,0-5.647,5.41,5.743,5.743,0,0,0,.769,3.637c.076-.213.128-.363.184-.512A3.845,3.845,0,0,1,12.3,7.811c.625,0,1.25-.008,1.874,0a7.12,7.12,0,0,0,4.47-1.474c.293-.222.582-.452.885-.66a.727.727,0,0,1,1.072.107,7.756,7.756,0,0,1,1.59,2.98c.118.586.135,1.195.2,1.851Zm-7,18.744A9.3,9.3,0,0,0,22.61,25.85c.208-.254.244-.414,0-.68a6.962,6.962,0,0,0-4.689-1.894,1.027,1.027,0,0,0-.441.16,4.543,4.543,0,0,1-3.767.136,3.073,3.073,0,0,0-1.754-.185,6.373,6.373,0,0,0-3.743,1.767c-.237.242-.26.4-.036.678a9.3,9.3,0,0,0,7.207,3.529ZM7.04,23.937a20.1,20.1,0,0,1,2.474-1.478,20.78,20.78,0,0,1,2.806-.776c0-.606-.014-1.261.008-1.916a.539.539,0,0,0-.333-.55,6.857,6.857,0,0,1-3.289-4.251c-.079-.283-.133-.577-.2-.886a8.992,8.992,0,0,0-1.458,9.859Zm16.654.142A8.961,8.961,0,0,0,22.283,14.1a7.011,7.011,0,0,1-3.653,5.227.354.354,0,0,0-.142.262c-.012.715-.007,1.431-.007,2.2a7.882,7.882,0,0,1,5.217,2.29Zm-9.823-4.021c0,.532-.013,1.105.011,1.678a.474.474,0,0,0,.235.342,3.185,3.185,0,0,0,2.6-.014.384.384,0,0,0,.207-.265c.019-.6.01-1.2.01-1.741ZM37.71,11.91c-1.153.961-2.282,1.9-3.412,2.839-.192.164-.4.324-.589.493a.783.783,0,0,1-1.047.129.792.792,0,0,1-.274-.979c.428-1.456.832-2.918,1.26-4.375a.645.645,0,0,0-.183-.749c-1.036-1-2.043-2.034-3.066-3.049A.86.86,0,0,1,30.086,5.2.845.845,0,0,1,31,4.729c1.185.01,2.37-.008,3.557.008A.524.524,0,0,0,35.1,4.4c.588-1.205,1.2-2.4,1.794-3.6a.921.921,0,0,1,.818-.639.9.9,0,0,1,.825.628C39.12,1.972,39.731,3.15,40.3,4.348a.606.606,0,0,0,.658.4c1.169-.018,2.339,0,3.508-.012a.828.828,0,0,1,.886.508.812.812,0,0,1-.288.943C44.02,7.221,42.987,8.272,41.931,9.3a.578.578,0,0,0-.171.666c.427,1.456.832,2.918,1.263,4.373a.829.829,0,0,1-.3,1.057.818.818,0,0,1-1.046-.18c-1.153-.971-2.307-1.932-3.46-2.9-.161-.135-.322-.26-.506-.409Zm0-9.271c-.53,1.057-1.029,2.019-1.491,3a1,1,0,0,1-1.053.651c-.79-.027-1.582-.007-2.467-.007.17.184.261.288.36.384C33.7,7.317,34.341,7.97,35,8.6a1.054,1.054,0,0,1,.324,1.2c-.239.728-.429,1.472-.634,2.211-.035.122-.048.251-.086.451l2.436-2.028c.541-.451.811-.451,1.346,0l2.487,2.068c-.213-.753-.4-1.376-.567-2-.4-1.484-.555-1.232.624-2.4.583-.577,1.169-1.153,1.848-1.826-.951,0-1.748-.018-2.543.007a.977.977,0,0,1-1.016-.628c-.469-.975-.968-1.939-1.509-3.015Zm2.312,24.651c-1.328,1.1-2.623,2.174-3.908,3.255-.342.288-.688.5-1.121.231-.455-.288-.4-.707-.265-1.153.415-1.409.807-2.825,1.231-4.229a.644.644,0,0,0-.2-.745c-1.032-1.006-2.042-2.036-3.065-3.051a.851.851,0,0,1-.316-.979c.168-.427.522-.506.939-.5,1.169.012,2.339-.008,3.508.009a.553.553,0,0,0,.588-.355c.577-1.194,1.185-2.373,1.772-3.562.181-.367.406-.673.85-.673s.663.317.841.682c.583,1.191,1.183,2.374,1.761,3.569a.517.517,0,0,0,.55.337c1.2-.015,2.4,0,3.6-.01a.818.818,0,0,1,.86.474.8.8,0,0,1-.252.949c-1.03,1.03-2.048,2.075-3.1,3.085a.7.7,0,0,0-.2.831c.419,1.408.8,2.826,1.221,4.236a.846.846,0,0,1-.261,1.069c-.426.288-.78.091-1.123-.2-1.285-1.08-2.578-2.154-3.911-3.267Zm-3.157.6,2.417-2.009c.63-.525.839-.529,1.455-.018.782.647,1.562,1.3,2.442,2.029-.282-1-.508-1.877-.78-2.741a.992.992,0,0,1,.3-1.122c.508-.487,1-.993,1.5-1.493.262-.264.522-.532.854-.865-.931,0-1.745-.013-2.558.006a.9.9,0,0,1-.941-.589c-.1-.219-.211-.43-.319-.644-.39-.777-.781-1.553-1.213-2.411-.53,1.057-1.029,2.019-1.492,3a1.007,1.007,0,0,1-1.057.648c-.789-.027-1.58-.007-2.517-.007.8.789,1.466,1.5,2.188,2.149a1.319,1.319,0,0,1,.427,1.611C37.294,26.185,37.117,26.981,36.865,27.887ZM3.129,43.228v1.48H21.545v-1.48ZM20,41.641v-1.5H4.655v1.5Z" transform="translate(-0.015 -0.013)" fill="#d6a461"/></g></g></svg>