<svg xmlns="http://www.w3.org/2000/svg" width="49.223" height="49.273" viewBox="0 0 49.223 49.273"><g transform="translate(-0.001 0)"><path d="M40.5,12.694a10.706,10.706,0,0,1,1.407.144,2.352,2.352,0,0,1,.544,4.352.6.6,0,0,0-.369.649c.017.893,0,1.786,0,2.679a1.1,1.1,0,0,1-.026.134h-1.57V17.546l-.127-.019c-.052.144-.108.285-.153.431a6.976,6.976,0,0,1-2.528,3.64.808.808,0,0,0-.361.741c.02,1.074.007,2.147.007,3.275L41,26.536c.688.173,1.379.33,2.063.517a6.619,6.619,0,0,1,4.6,3.886A8.267,8.267,0,0,1,48.12,33.1c.377,2.878.721,5.768,1.084,8.65.1.826-.189,1.171-1.031,1.171H34.311c.091.839.174,1.634.267,2.429.111.952.24,1.9.346,2.852.08.714-.235,1.069-.945,1.069H.934a.825.825,0,0,1-.921-1.045q.514-4.4,1.045-8.806c.174-1.46.358-2.919.514-4.379A.938.938,0,0,1,2.3,34.16c1.675-.547,3.349-1.114,5.022-1.675.2-.067.4-.143.619-.222,0-.411.012-.807,0-1.2a.8.8,0,0,0-.794-.841,2.386,2.386,0,0,1-2.382-2.61V23.937a3.208,3.208,0,0,1,2.046-3.056,1.039,1.039,0,0,0,.421-.457,6.224,6.224,0,0,1,.383-.846,1.679,1.679,0,0,0,.331-1.142,28.52,28.52,0,0,1,.107-3.511,5.471,5.471,0,0,1,5.292-4.559c2.431-.014,4.863-.019,7.293,0a3.051,3.051,0,0,1,2.941,1.97.6.6,0,0,0,.6.433A3.263,3.263,0,0,1,26.2,13.8c0-.29-.006-.472,0-.656a27.379,27.379,0,0,1,.165-3.408A6.643,6.643,0,0,1,29.2,5.359a.551.551,0,0,0,.251-.657A3.876,3.876,0,0,1,31.174.67a3.864,3.864,0,0,1,4.348,0,3.87,3.87,0,0,1,1.722,4.038.562.562,0,0,0,.259.654A7.052,7.052,0,0,1,40.5,11.316C40.495,11.774,40.5,12.234,40.5,12.694Zm-7.04,23.047a10.527,10.527,0,0,1,3.224-2.361,11.291,11.291,0,0,1,5.039-.8,1.534,1.534,0,0,1,1.246.563,8.928,8.928,0,0,1,2.3,5.968c.006.723,0,1.446,0,2.183H47.51c-.333-2.74-.647-5.446-1-8.146a6,6,0,0,0-.5-1.941,4.922,4.922,0,0,0-3.295-2.574c-1.389-.358-2.779-.715-4.176-1.039a.794.794,0,0,0-.63.185,8.645,8.645,0,0,1-2.617,1.846.485.485,0,0,0-.366.536,1.581,1.581,0,1,1-3.159.023.518.518,0,0,0-.392-.57,7.462,7.462,0,0,1-2.562-1.831.6.6,0,0,0-.695-.2c-1.29.335-2.6.624-3.883.985a12.133,12.133,0,0,0-1.731.711.526.526,0,0,0-.259.364c-.032.44-.012.882-.012,1.265a14.751,14.751,0,0,1,1.639.338c2.679.874,5.344,1.807,8.038,2.652C32.856,34.189,33.589,34.534,33.456,35.741ZM5.571,47.65V39.774h1.6v7.863H11.89c.033-4.945.2-9.859-.741-14.733-2.58.858-5.14,1.717-7.709,2.562a.484.484,0,0,0-.366.5c-.166,1.548-.357,3.083-.539,4.624-.276,2.343-.549,4.687-.827,7.06Zm22.207-7.871h1.617v7.875H33.2a.452.452,0,0,0,.022-.116q-.687-5.827-1.389-11.654a.6.6,0,0,0-.337-.391c-.646-.248-1.307-.456-1.964-.675l-5.74-1.911c-.945,4.89-.783,9.808-.743,14.729h4.73ZM11.931,19.1c0,1.5-.072,2.938.016,4.366a5.539,5.539,0,0,0,11.062-.21c.044-1.469.012-2.94.011-4.411a.608.608,0,0,0-.057-.33c-.472-.649-.959-1.29-1.445-1.935-2.076,2.084-3.133,2.52-6.062,2.52Zm23.67-7a14.414,14.414,0,0,1-1.348,1.1,5.526,5.526,0,0,1-1.545.759,13.709,13.709,0,0,1-2.432.357c-.816.058-1.638.012-2.472.012,0,.682-.028,1.29,0,1.9a5.54,5.54,0,0,0,5.366,5.224c3.374.066,6.351-2.673,5.656-7.195A4.9,4.9,0,0,1,35.6,12.107ZM10.269,18.291c.266-.689.408-.784,1.147-.784,1.538,0,3.076-.006,4.614,0a4.951,4.951,0,0,0,4.648-2.653c.39-.689,1.012-.715,1.5-.075q1.05,1.381,2.084,2.779c.163.22.293.466.456.729h.67c0-.871.043-1.73-.014-2.58a1.488,1.488,0,0,0-1.234-1.322,4.894,4.894,0,0,0-.893-.043c-.713-.009-.942-.208-1.024-.911a1.587,1.587,0,0,0-1.593-1.468c-2.414-.011-4.83-.025-7.244.006a3.813,3.813,0,0,0-3.709,3.015,26.328,26.328,0,0,0-.2,3.307ZM34.107,41.282h9.547c0-.88.04-1.724-.008-2.562a7.128,7.128,0,0,0-1.707-4.285.618.618,0,0,0-.4-.229,18.086,18.086,0,0,0-2.659.168A7.085,7.085,0,0,0,34.153,37.6c-.141.212-.4.441-.384.646C33.84,39.259,33.987,40.271,34.107,41.282Zm-6.289-28.54c.768,0,1.508-.02,2.247,0a5.1,5.1,0,0,0,4.962-2.72.987.987,0,0,1,.794-.414c.251.032.512.347.682.6.18.266.219.622.385.9a3.152,3.152,0,0,0,2.049,1.513c-.044-.813-.032-1.542-.132-2.258a5.483,5.483,0,0,0-4.388-4.649,5.577,5.577,0,0,0-5.922,2.753,7.623,7.623,0,0,0-.676,4.28ZM7.444,22.376a1.585,1.585,0,0,0-1.081,1.578q-.012,1.86,0,3.717a.823.823,0,0,0,.887.95A2.382,2.382,0,0,1,9.54,31.065v.611l3.164-.829c0-.653.018-1.38-.012-2.1a.971.971,0,0,0-.25-.59A7.254,7.254,0,0,1,10.719,25.4c-.169-.5-.275-1.008-.408-1.51C8.68,23.752,8.283,23.544,7.444,22.376ZM30.41,27.035c-.008.06-.017.118-.026.178.752.4,1.5.8,2.261,1.178a1.3,1.3,0,0,0,.757.175,6.117,6.117,0,0,0,2.919-1.52,1,1,0,0,1-.6-1.08c.02-1.083.006-2.166.006-3.295a7.218,7.218,0,0,1-4.754,0c0,1.118-.015,2.188.007,3.258a1.012,1.012,0,0,1-.568,1.106ZM14.3,29.484c0,.511.026.942-.007,1.367a1.728,1.728,0,0,0,.384,1.226c.855,1.152,1.674,2.332,2.509,3.5.082.115.181.219.277.335a.944.944,0,0,0,.134-.12q1.456-2.032,2.907-4.069a.606.606,0,0,0,.131-.308c.012-.62.006-1.241.006-1.928A7.227,7.227,0,0,1,14.3,29.484Zm9.081-2.373,6-1.494c0-1.206,0-2.392,0-3.578a.383.383,0,0,0-.118-.251c-.5-.454-1.014-.9-1.519-1.343a2.8,2.8,0,0,1-2.779,3.434c-.14.006-.382.126-.4.219a7.72,7.72,0,0,1-1.178,3.014ZM14.416,39.246c-.912.257-.912.257-.912,1.092v7.295h1.65c.145-1.647.205-3.275.457-4.863a2.121,2.121,0,0,0-.87-2.25A.947.947,0,0,1,14.416,39.246Zm7.02,8.405V40.238c0-.821,0-.821-.885-.931a.969.969,0,0,1-.346,1.226c-.185.165-.333.373-.531.518a1.089,1.089,0,0,0-.4,1.129c.118,1.016.192,2.037.288,3.055.075.8.159,1.6.239,2.416ZM31.062,4.377a7.343,7.343,0,0,1,4.577-.011,2.251,2.251,0,0,0-.992-2.34A2.356,2.356,0,0,0,32,2.064,2.227,2.227,0,0,0,31.062,4.377ZM12.81,32.609l.6,5.259,2.747-.92C15.3,35.477,13.181,32.691,12.81,32.609Zm8.725,5.25c.2-1.765.4-3.5.588-5.237l-.2-.1c-1.074,1.441-2.1,2.919-3.17,4.416ZM17.192,42.93c-.144,1.6-.284,3.144-.427,4.715h1.408c-.147-1.595-.291-3.157-.435-4.715Zm7.45-23v2.32A1.263,1.263,0,0,0,26,21.711a1.078,1.078,0,0,0,0-1.256,1.24,1.24,0,0,0-1.352-.529Zm-14.347,0a1.246,1.246,0,0,0-1.376.563,1.082,1.082,0,0,0,.04,1.253,1.183,1.183,0,0,0,1.337.456Zm6.048,19.748L17.434,40.8l1.14-1.04-1.119-1.23ZM40.516,15.912c.563-.017,1.158.172,1.441-.445a.94.94,0,0,0-.05-.77c-.331-.524-.881-.344-1.389-.331Z" fill="#d6a461"/></g></svg>