<svg width="65" height="64" viewBox="0 0 65 64" fill="none" xmlns="http://www.w3.org/2000/svg">
<path d="M64.0284 63.9983H0C0 56.2448 0 48.4912 0 40.7376H11.4859V12.4832H21.4781V0H35.627V12.5467H45.6226V26.2897H55.9106V33.7609H64.0067V34.6196C64.0067 44.1424 64.0067 53.6652 64.0067 63.1881C64.0067 63.4587 64.0201 63.7294 64.0284 64V63.9983ZM30.2826 60.1959H33.7692V33.7308H41.8118V16.2924H15.2499V40.7426H30.2826V60.1976V60.1959ZM37.5282 60.2109H60.2059V37.5266H37.5299V60.2109H37.5282ZM3.82249 48.3559V60.2126H26.4801V48.3525C25.4075 49.4334 24.4135 50.4058 23.4612 51.4182C23.2591 51.632 23.1221 51.9845 23.107 52.2803C23.0619 53.169 23.0903 54.0612 23.0903 54.975H19.3029V52.0814H10.993V54.9784H7.24402C7.24402 54.0411 7.25405 53.1473 7.23734 52.2552C7.23233 52.0413 7.20393 51.7657 7.07194 51.6287C6.03446 50.5511 4.96857 49.5019 3.82249 48.3542V48.3559ZM5.29268 44.525C6.45213 45.6828 7.51968 46.7236 8.55383 47.7979C8.89798 48.1554 9.24548 48.3091 9.74835 48.3057C13.3704 48.2857 16.994 48.2874 20.6161 48.3041C21.0655 48.3057 21.3929 48.1938 21.7103 47.8613C22.6443 46.8823 23.6166 45.9417 24.5722 44.9828C24.6958 44.8591 24.8028 44.7188 24.9698 44.525H5.29268ZM31.8263 3.75399H25.2472V12.4548H31.8263V3.75399ZM45.6377 33.6874H52.1048V30.0804H45.6377V33.6874Z" fill="#E18D51"/>
<path d="M19.5371 20.043H37.5453V23.7151H19.5371V20.043Z" fill="#E18D51"/>
<path d="M43.292 41.5227H46.9708V56.7058H43.292V41.5227Z" fill="#E18D51"/>
<path d="M54.4707 41.5312V56.7277H50.7969V41.5312H54.4707Z" fill="#E18D51"/>
</svg>
