<svg width="68" height="64" viewBox="0 0 68 64" fill="none" xmlns="http://www.w3.org/2000/svg">
<path d="M68.0003 32.6665C65.1896 32.6665 62.3789 32.6807 59.5682 32.6594C59.1175 32.6559 58.9347 32.7835 58.7839 33.2214C57.6837 36.3926 54.692 38.5021 51.3934 38.4826C48.0947 38.4613 45.1722 36.3749 44.0774 33.216C43.9283 32.7835 43.7402 32.6133 43.2842 32.6612C42.8707 32.7037 42.4484 32.6701 41.9942 32.6701C43.3552 39.4842 41.5825 45.2116 35.7694 49.1239C29.9511 53.0397 23.9747 52.5433 18.0552 48.6577C17.5406 49.209 16.9568 49.778 16.4476 50.4073C16.2755 50.62 16.2506 50.9781 16.224 51.2776C16.0874 52.7525 15.9827 54.2291 15.8354 55.7022C15.8123 55.9415 15.6863 56.2163 15.5195 56.3864C13.5109 58.4144 11.5093 60.4476 9.45984 62.433C7.76525 64.0745 5.34315 64.4396 3.24753 63.4647C1.17144 62.5003 -0.0955063 60.4316 0.00563668 58.1236C0.0659676 56.7729 0.543291 55.5675 1.49439 54.5996C3.52612 52.5327 5.5827 50.4906 7.64104 48.4538C7.79542 48.3013 8.05094 48.195 8.27097 48.1737C9.70117 48.0301 11.1331 47.8883 12.5687 47.8068C13.1826 47.7713 13.6582 47.6029 14.0734 47.1349C14.4655 46.6936 14.9446 46.3319 15.3332 45.9827C14.7211 44.9014 14.061 44.0115 13.6883 43.0135C13.1383 41.5351 12.7993 39.977 12.3504 38.4596C12.2918 38.2593 12.1623 37.9934 11.9955 37.9224C9.65148 36.912 8.13966 35.1731 7.3731 32.6931H0.149366C0.115652 32.5424 0.0730653 32.4414 0.0730653 32.3421C0.0801631 28.8269 0.0145089 25.31 0.12275 21.7966C0.236314 18.1006 3.05235 14.8726 6.68462 14.0944C7.20985 13.9827 7.50796 13.7487 7.77768 13.2896C11.9973 6.07845 18.2433 1.70885 26.4767 0.340356C36.7986 -1.37558 47.298 3.50809 52.6852 12.476C53.4428 13.7363 54.3283 14.472 55.7177 14.9205C59.8361 16.2499 63.9085 17.7177 67.9985 19.1305V32.6647L68.0003 32.6665ZM27.7153 25.5511C21.7336 25.2444 16.5434 30.0554 16.2293 36.1977C15.9206 42.2442 20.7151 47.4664 26.8547 47.7696C32.9995 48.0727 38.1561 43.3184 38.4737 37.0574C38.7807 31.0091 33.979 25.8719 27.7153 25.5511ZM63.8286 22.0607C63.8286 22.0199 63.8304 21.9792 63.8322 21.9402C63.7133 21.8923 63.5944 21.8391 63.4737 21.7966C60.01 20.5947 56.5481 19.3858 53.0773 18.1981C52.5627 18.0226 52.0144 17.8418 51.4803 17.84C45.394 17.8152 39.3059 17.8241 33.2196 17.8258C33.0031 17.8258 32.7884 17.8436 32.4974 17.856C32.4974 19.3273 32.485 20.7596 32.5151 22.1883C32.5187 22.3373 32.7405 22.5482 32.9073 22.6173C35.8422 23.8103 38.1898 25.7177 39.9607 28.3412C40.06 28.4884 40.2428 28.6763 40.3901 28.6798C41.5576 28.7082 42.7252 28.6958 43.8644 28.6958C44.741 26.2336 45.9405 24.7658 47.8516 23.7749C52.0464 21.5981 57.1709 23.6384 58.7928 28.1197C58.8708 28.3341 59.066 28.6674 59.2133 28.671C60.7979 28.7117 62.3825 28.6958 63.9706 28.6958V26.0155H61.0073V22.0607H63.8286ZM28.4747 17.8223H27.7259C24.2516 17.8223 20.7772 17.8223 17.3011 17.8223C14.4247 17.8223 11.5466 17.8063 8.67022 17.8276C6.18423 17.8453 4.09394 19.7775 4.12411 22.0536H6.64026V26.0439H4.09217V28.6656H7.37488C7.41569 28.554 7.44586 28.4706 7.47602 28.3873C9.15819 23.5799 14.0964 21.5839 18.6639 23.8405C18.8732 23.9433 19.2547 23.8901 19.4694 23.7642C21.5846 22.5234 23.847 21.7647 26.301 21.63C27.0197 21.591 27.7419 21.6246 28.4747 21.6246V17.8223ZM12.2333 13.7984H28.4747V4.17639C23.5471 3.77222 14.2384 9.28518 12.2333 13.7966V13.7984ZM32.5435 4.07889V13.7984H48.8737C44.812 8.10636 39.4336 4.9014 32.5435 4.07889ZM47.6174 30.612C47.5677 32.6949 49.2374 34.4463 51.333 34.5065C53.4002 34.5668 55.1853 32.8722 55.2421 30.7981C55.2989 28.6851 53.6132 26.9231 51.4874 26.8717C49.4149 26.8221 47.6688 28.5096 47.6191 30.612H47.6174ZM12.141 51.8236C11.3443 51.8928 10.599 51.9495 9.85732 52.031C9.71891 52.047 9.56631 52.1374 9.46339 52.2384C7.78655 53.9047 6.09906 55.5622 4.45238 57.2604C3.66453 58.0722 3.87036 59.2759 4.81436 59.8059C5.47978 60.1799 6.22504 60.0541 6.86206 59.4248C8.04207 58.2619 9.14399 57.0069 10.4003 55.9344C11.6122 54.8992 12.2901 53.7239 12.1588 52.1214C12.1534 52.0558 12.1499 51.992 12.1392 51.8236H12.141ZM15.7005 27.049C14.0734 26.5083 12.1268 27.5134 11.4117 29.2116C10.741 30.8088 11.2982 32.9129 12.574 33.5458C13.0886 31.1332 14.1373 28.9741 15.6988 27.049H15.7005Z" fill="#E18D51"/>
</svg>
