<svg width="65" height="65" viewBox="0 0 65 65" fill="none" xmlns="http://www.w3.org/2000/svg">
<path d="M45.8325 64.9988H12.5757C12.432 64.8233 12.3023 64.6338 12.142 64.4735C8.27062 60.597 4.40176 56.7167 0.512542 52.858C0.130997 52.4803 0 52.1076 0 51.5862C0.0114464 37.2439 0.0101745 22.9004 0.0101745 8.5581C0.0101745 8.3101 0.0101745 8.06209 0.0101745 7.75177H0.812691C11.3688 7.75177 21.9248 7.74287 32.4809 7.77085C33.2427 7.77339 33.6726 7.51903 34.1368 6.93654C38.5259 1.43211 44.2389 -0.988153 51.1652 0.394312C58.1271 1.78314 62.5416 6.18362 64.4684 13.026C64.7291 13.9531 64.827 14.9248 65 15.8761V18.4147C64.9657 18.5762 64.9161 18.7364 64.8995 18.9005C64.5422 22.1983 63.3759 25.1807 61.2799 27.7485C57.4874 32.3945 52.5998 34.6698 46.5625 34.3416C46.3386 34.3289 46.1135 34.3404 45.8337 34.3404V65L45.8325 64.9988ZM3.84852 49.6619H15.3839V61.1515H42.0017C42.0106 61.0116 42.0221 60.9099 42.0221 60.8069C42.0221 51.838 42.0196 42.8679 42.0335 33.899C42.0335 33.5022 41.8568 33.389 41.5477 33.225C40.1716 32.4937 38.8273 31.7052 37.455 30.9662C37.1218 30.7869 36.7288 30.6152 36.3638 30.6152C27.077 30.5961 17.7902 30.6 8.50337 30.6C8.26045 30.6 8.01753 30.6 7.78733 30.6V26.787H33.375C32.8358 25.678 32.2914 24.6377 31.8259 23.563C31.6403 23.1344 31.4508 22.9703 30.9636 22.9716C23.4752 22.9907 15.9867 22.9843 8.49828 22.9843H7.78861V19.1485H30.736C30.3977 16.5209 30.7767 14.0409 31.5538 11.5914H3.84852V49.6619ZM61.1896 17.1441C61.196 9.82865 55.1867 3.81677 47.8699 3.81931C40.604 3.82186 34.4459 9.96346 34.4115 17.2421C34.3772 24.5474 40.3713 30.572 47.6995 30.5987C54.9768 30.6241 61.1833 24.4342 61.1896 17.1441ZM11.5277 53.4952H6.76606C8.34185 55.071 9.94433 56.6722 11.529 58.2569V53.4952H11.5277Z" fill="#E18D51"/>
<path d="M38.1861 34.4509V38.1837H7.80371V34.4509H38.1874H38.1861Z" fill="#E18D51"/>
<path d="M38.1875 42.0691V45.7993H19.2285V42.0691H38.1875Z" fill="#E18D51"/>
<path d="M19.2061 53.4049V49.6721H38.165V53.4049H19.2061Z" fill="#E18D51"/>
<path d="M51.9715 10.1809C52.9724 11.1882 53.8347 12.0568 54.7466 12.9751C53.3412 14.3715 51.9066 15.796 50.4339 17.2598C51.9155 18.7313 53.3489 20.1558 54.7542 21.551C53.8271 22.4743 52.9622 23.3366 52.0898 24.2052C50.7187 22.8177 49.2994 21.3818 47.8673 19.9319C46.3424 21.4797 44.9256 22.9194 43.561 24.3044C42.5753 23.3213 41.7003 22.4476 40.7744 21.523C42.1327 20.1736 43.5673 18.7479 45.0401 17.284C43.5584 15.8125 42.1251 14.3881 40.7197 12.9929C41.6456 12.0696 42.5117 11.2073 43.3829 10.3386C44.7552 11.7274 46.1733 13.1633 47.6066 14.6132C49.1315 13.0654 50.5483 11.6257 51.9715 10.1809Z" fill="#E18D51"/>
</svg>
