<svg width="64" height="64" viewBox="0 0 64 64" fill="none" xmlns="http://www.w3.org/2000/svg">
<path d="M56.1994 64H56.074C52.7999 60.7174 49.5275 57.4349 46.1431 54.0404C47.0745 53.1505 47.9574 52.309 48.8018 51.5025C48.2968 50.9749 47.8253 50.4824 47.352 49.9865C46.827 50.2837 46.3471 50.6326 45.8103 50.8397C45.2986 51.0384 45.21 51.3456 45.2134 51.8331C45.2334 54.3927 45.2234 56.954 45.2234 59.5153C45.2234 59.7373 45.2234 59.9577 45.2234 60.2416C44.899 60.2416 44.6532 60.2416 44.4074 60.2416C35.5466 60.2416 26.6859 60.2416 17.8252 60.2416C11.884 60.2416 5.94116 60.2483 0 60.2516V0.00834833C10.7436 0.00834833 21.4855 0.0116877 32.2291 0C32.6605 0 32.9598 0.125225 33.2625 0.429104C37.0867 4.26767 40.9209 8.09956 44.7686 11.9164C45.1097 12.2554 45.2334 12.596 45.2318 13.0651C45.2184 18.6051 45.2284 24.1467 45.2134 29.6867C45.2134 30.1542 45.3204 30.4113 45.7785 30.6367C50.8435 33.1145 53.2965 38.8832 51.5291 44.2261C51.1746 45.2981 50.601 46.2999 50.1512 47.2816C50.596 47.7541 51.0642 48.25 51.6361 48.8561C52.4738 47.9512 53.3032 47.0562 54.0992 46.198C57.4452 49.5424 60.7125 52.8082 64 56.0941C63.898 56.201 63.7592 56.3529 63.6137 56.4965C61.2844 58.824 58.9518 61.1499 56.6258 63.4807C56.4686 63.6377 56.3415 63.8247 56.2011 63.9983L56.1994 64ZM41.4343 15.022H30.1439V3.80684H3.79244V56.4548H41.4126V52.0235C37.5582 52.0986 34.3761 50.7595 31.9833 47.7825C29.5787 44.7905 29.0236 41.3677 29.9098 37.6176H7.58322V33.8892C7.8842 33.8892 8.13503 33.8892 8.38418 33.8892C15.5594 33.8892 22.7346 33.8659 29.9081 33.9109C31.1305 33.9193 32.2107 33.8642 32.8929 32.6887C32.903 32.672 32.923 32.6604 32.9381 32.6453C34.0083 31.5784 35.2824 30.8154 36.6419 30.1158H7.5782V26.4058H37.6987V29.7785C38.9712 29.6449 40.1852 29.5197 41.4343 29.3878V15.022ZM33.2675 40.6965C33.2357 44.8573 36.5416 48.2217 40.7019 48.2651C44.909 48.3085 48.2884 45.0126 48.3286 40.825C48.3704 36.6275 45.0662 33.2664 40.8624 33.2247C36.6687 33.183 33.2993 36.4972 33.2658 40.6948L33.2675 40.6965ZM58.5939 56.0424C57.1157 54.5681 55.6192 53.0737 54.1794 51.6378C53.3651 52.4476 52.5006 53.3091 51.6746 54.1323C53.1343 55.5916 54.6309 57.0859 56.0924 58.5469C56.9201 57.717 57.7829 56.8538 58.5939 56.0424ZM33.9514 11.2469H38.5548C37.0298 9.71078 35.4915 8.15966 33.9514 6.60854V11.2469Z" fill="#E18D51"/>
<path d="M7.55469 22.544V18.8975H37.6501V22.544H7.55469Z" fill="#E18D51"/>
<path d="M16.8583 49.6343C15.6777 48.4405 14.4621 47.2116 13.2213 45.9577C12.4053 46.7875 11.6228 47.5839 10.8636 48.357C9.94225 47.422 9.08778 46.5537 8.27344 45.7273C9.88539 44.1177 11.5592 42.443 13.233 40.77C14.4119 41.9505 15.6443 43.1844 16.9034 44.4466C17.7479 43.5751 18.5254 42.772 19.2528 42.0189C20.1925 42.9573 21.0537 43.8188 21.8798 44.6436C20.2778 46.2365 18.599 47.9045 16.8583 49.6343Z" fill="#E18D51"/>
<path d="M7.56836 15.0002V11.3403H22.5876V15.0002H7.56836Z" fill="#E18D51"/>
</svg>
