<svg width="65" height="65" viewBox="0 0 65 65" fill="none" xmlns="http://www.w3.org/2000/svg">
<path d="M0 24.4878H9.39973C9.39973 24.1788 9.39973 23.9382 9.39973 23.6994C9.39973 20.1982 9.3797 16.697 9.40474 13.1975C9.43814 8.5922 12.5552 4.82376 17.0648 3.92174C17.6725 3.7998 18.3053 3.75637 18.9264 3.75136C21.3222 3.73299 23.7164 3.73299 26.1122 3.75303C26.528 3.75637 26.7083 3.62441 26.8953 3.24857C27.9454 1.14051 29.6668 -0.0137368 32.0275 -0.000373535C34.3583 0.0129897 36.0646 1.16223 37.0931 3.25191C37.28 3.63276 37.4704 3.7547 37.8811 3.75136C40.2552 3.73132 42.6294 3.738 45.0035 3.74301C50.3979 3.75136 54.5485 7.86558 54.5836 13.266C54.6053 16.7254 54.5886 20.1848 54.5886 23.6442C54.5886 23.8915 54.5886 24.137 54.5886 24.4527H63.9449C64.3089 29.1132 62.9565 33.0002 59.048 35.6394C55.1379 38.2787 50.9689 38.4173 46.9169 36.0019C42.6277 33.4462 41.0917 29.4239 41.4273 24.4995H50.7819C50.797 24.2122 50.8203 23.9917 50.8203 23.7712C50.822 20.3535 50.8287 16.9359 50.8203 13.5182C50.8103 9.88677 48.4111 7.50811 44.7715 7.50644C42.4808 7.50644 40.1885 7.51479 37.8978 7.49809C37.4938 7.49475 37.2784 7.59163 37.0997 7.99253C36.5354 9.25535 35.6055 10.1925 34.3316 10.747C33.9593 10.9091 33.8574 11.1145 33.8641 11.497C33.8875 12.658 33.8724 13.8189 33.8724 15.0383H39.4655V18.8001H33.9242V48.9426C34.6989 48.9426 35.5003 48.9693 36.2983 48.9326C36.7558 48.9108 37.0062 49.0562 37.2066 49.4788C37.8861 50.907 38.6124 52.3101 39.3103 53.73C39.4088 53.9287 39.5006 54.1593 39.5023 54.3747C39.5089 57.5836 39.4989 60.7924 39.4922 64.0013H24.4961C24.4894 60.7941 24.4794 57.5853 24.4861 54.3781C24.4861 54.1626 24.5796 53.9321 24.6764 53.7333C25.3743 52.3151 26.1005 50.9103 26.7817 49.4838C26.9821 49.0628 27.2292 48.9125 27.6883 48.9342C28.4864 48.9726 29.2894 48.9442 30.0691 48.9442V18.8034H24.5178V15.0199H30.1159C30.1159 13.7738 30.1009 12.6095 30.1242 11.4469C30.1326 11.0761 30.0074 10.9007 29.6701 10.752C28.3996 10.1958 27.4646 9.26538 26.8936 8.00589C26.7166 7.61669 26.5213 7.49308 26.1072 7.49642C23.8166 7.51646 21.5259 7.50477 19.2352 7.50644C15.5605 7.50811 13.1747 9.8851 13.168 13.56C13.163 16.9559 13.1663 20.3519 13.168 23.7478C13.168 23.97 13.188 24.1921 13.2014 24.4795H22.6428C22.5844 25.6905 22.6161 26.8397 22.4592 27.9639C21.7296 33.194 17.2451 37.3433 12.1061 37.6105C6.52305 37.8995 1.69629 34.4167 0.35896 29.1282C0.222054 28.587 0.12021 28.0357 0.00166958 27.4895V24.4895L0 24.4878ZM45.4894 28.2496C45.9218 31.3983 49.4914 33.9991 53.1077 33.8588C56.2966 33.7352 59.7442 30.8838 59.8761 28.2496H45.4894ZM4.0671 28.2496C4.67816 31.5887 8.31451 34.1578 11.9342 33.8488C15.083 33.5798 18.4171 30.7318 18.4605 28.2496H4.0671ZM35.7507 60.2095C35.7507 59.0786 35.6806 58.0112 35.7674 56.9572C35.8843 55.5474 35.562 54.2812 34.789 53.1236C34.6655 52.9382 34.4 52.7361 34.1963 52.7311C32.7188 52.6976 31.2412 52.6993 29.7636 52.7311C29.5749 52.7344 29.3228 52.9198 29.2143 53.0919C28.4897 54.2378 28.0723 55.4555 28.2159 56.857C28.3111 57.784 28.2326 58.7295 28.2359 59.6666C28.2359 59.8453 28.2626 60.0241 28.276 60.2095H35.749H35.7507ZM31.9674 7.49809C33.0076 7.50811 33.8507 6.69963 33.8691 5.67066C33.8891 4.62666 33.0243 3.74134 31.9892 3.74301C30.9774 3.74468 30.1242 4.59993 30.1176 5.61721C30.1125 6.64785 30.9373 7.48639 31.9674 7.49809Z" fill="#E18D51"/>
<path d="M1.875 63.9999C1.875 62.2075 1.875 60.4168 1.88001 58.6245C1.88836 55.0832 3.3626 52.3287 6.31775 50.3727C6.3862 50.3276 6.44965 50.2741 6.56652 50.1889C5.64157 48.6121 5.35107 46.9484 5.97549 45.1844C6.40123 43.9834 7.14586 43.0346 8.20605 42.338C10.3414 40.9315 13.1313 41.1504 15.0346 42.8325C16.6775 44.2824 17.8028 47.1438 16.0948 50.0703C16.9697 50.9039 17.9063 51.6472 18.661 52.5442C20.1085 54.2664 20.7045 56.326 20.7129 58.566C20.7195 60.3784 20.7346 62.1892 20.7463 63.9999H1.875ZM16.8995 60.208C16.8995 59.3962 16.9513 58.6078 16.8912 57.826C16.589 53.9875 12.4484 51.5771 8.96571 53.2224C6.20589 54.527 5.30766 57.0376 5.7167 60.208H16.8979H16.8995ZM13.1597 47.0803C13.1714 46.0497 12.3583 45.1978 11.3332 45.171C10.308 45.1443 9.40147 46.0313 9.40481 47.0586C9.40814 48.0675 10.2663 48.9244 11.2797 48.9328C12.3032 48.9412 13.148 48.1093 13.1597 47.0803Z" fill="#E18D51"/>
<path d="M43.2402 64C43.2519 62.3964 43.3054 60.7928 43.2653 59.1909C43.1718 55.3657 44.6143 52.3539 47.87 50.2676C47.9034 50.2459 47.9251 50.2058 47.9501 50.174C46.167 47.1272 47.289 44.1672 49.1372 42.6706C51.1741 41.0219 54.0791 40.9851 56.1327 42.5854C58.4368 44.3794 58.9026 47.057 57.445 50.1724C57.9025 50.5215 58.3833 50.8472 58.8191 51.2281C60.9228 53.0672 62.0264 55.3974 62.0948 58.1886C62.1416 60.1246 62.1082 62.064 62.1115 64.0017H43.2402V64ZM47.1304 60.2048H58.3349C58.3349 59.4698 58.3733 58.7649 58.3282 58.065C58.0811 54.1346 54.0908 51.5972 50.5296 53.149C47.6045 54.4235 46.6996 57.0194 47.1287 60.2048H47.1304ZM50.8251 47.0537C50.8251 48.0827 51.6566 48.9262 52.68 48.9346C53.6918 48.9429 54.5583 48.0994 54.58 47.0838C54.6017 46.0615 53.7085 45.1595 52.6784 45.1695C51.6583 45.1778 50.8251 46.0264 50.8251 47.0537Z" fill="#E18D51"/>
</svg>
