<svg width="64" height="64" viewBox="0 0 64 64" fill="none" xmlns="http://www.w3.org/2000/svg">
<path d="M0 34.0149C0 32.6829 0 31.3492 0 30.0172C0.0367355 29.8369 0.0784803 29.6567 0.106867 29.4747C0.360676 27.854 0.499268 26.2048 0.879982 24.6141C5.64223 4.69913 27.6151 -5.90015 46.3268 3.4222C59.5883 10.0288 66.406 24.5941 63.2268 39.0575C60.4833 51.5362 50.1139 61.4044 37.5119 63.5159C36.3464 63.7112 35.1709 63.8414 33.9987 64H29.9995C29.8609 63.9666 29.7223 63.9199 29.5821 63.8998C28.1227 63.6862 26.6482 63.546 25.2022 63.2572C12.7956 60.7768 2.51972 50.1141 0.499268 37.652C0.303903 36.4435 0.16531 35.2267 0 34.0149ZM8.51261 39.6567V38.9506C8.51261 35.9728 8.52597 32.9967 8.49925 30.0189C8.49591 29.5448 8.64619 29.3278 9.07533 29.1576C13.8827 27.238 18.6817 25.2951 23.489 23.3772C23.9014 23.212 24.04 23.005 24.0484 22.561C24.1252 18.323 25.1721 14.3386 27.2544 10.6381C28.2997 8.78193 29.8726 7.75539 32.0233 7.75873C34.1473 7.76374 35.7085 8.78193 36.7421 10.613C38.2082 13.2103 39.1867 15.9794 39.6392 18.9289C39.7595 19.7134 39.8513 20.5012 39.9365 21.1288C43.4096 17.6553 46.9179 14.1483 50.4211 10.6464C39.3871 0.814949 20.8975 1.12375 10.1941 14.0782C0.197036 26.1781 2.93717 42.3624 10.7 50.4262C15.0799 46.048 19.4615 41.6681 23.8079 37.3215C18.7985 38.086 13.7023 38.8638 8.51261 39.6567ZM41.097 54.6075H22.958C22.933 54.5124 22.9029 54.4556 22.9029 54.3972C22.8996 52.5027 22.8862 50.6082 22.9112 48.7137C22.9146 48.4783 23.0766 48.2079 23.2402 48.0193C24.045 47.0929 24.8816 46.1915 25.6948 45.2702C25.825 45.1233 25.992 44.9196 25.9787 44.7527C25.8935 43.5576 25.7666 42.3658 25.6631 41.2792C21.6339 45.3052 17.5946 49.3413 13.5621 53.3723C24.6445 63.2439 43.1325 62.8766 53.7958 49.9539C63.8396 37.7839 60.9976 21.5895 53.3182 13.6359C49.7799 17.1712 46.2399 20.7082 42.7033 24.2402C42.887 24.3153 43.1508 24.4271 43.418 24.5356C47.2552 26.083 51.089 27.6353 54.9329 29.1659C55.3403 29.3278 55.4956 29.5215 55.4906 29.9738C55.4672 32.9934 55.4789 36.0112 55.4772 39.0308C55.4772 39.2261 55.4539 39.4214 55.4405 39.6484C49.8467 38.7937 44.323 37.9508 38.7826 37.1062C38.7492 37.2598 38.7242 37.3366 38.7158 37.415C38.4821 39.817 38.2416 42.2189 38.0279 44.6242C38.0112 44.8161 38.1297 45.0615 38.2617 45.2167C38.8828 45.9445 39.4856 46.7006 40.1853 47.3483C40.92 48.0293 41.1654 48.7871 41.117 49.7753C41.0385 51.3693 41.0953 52.9701 41.0953 54.6092L41.097 54.6075ZM28.6286 32.5994C28.7238 32.5711 28.7722 32.5727 28.7956 32.5477C31.1684 30.1825 33.5412 27.8156 35.9039 25.4403C36.0208 25.3218 36.0959 25.1182 36.1126 24.9479C36.5351 20.4879 35.6367 16.3049 33.446 12.4024C32.7564 11.1739 31.2853 11.1639 30.5873 12.3773C29.0077 15.1231 28.0175 18.0793 27.8973 21.2423C27.8171 23.3522 28.0141 25.4754 28.1511 27.5886C28.2596 29.2577 28.465 30.9219 28.6303 32.5994H28.6286ZM37.2915 50.8703C37.4451 50.1876 37.3032 49.7002 36.839 49.2328C35.9907 48.3765 35.2009 47.4618 34.4195 46.5421C34.2542 46.3484 34.1356 46.0246 34.1573 45.7743C34.4913 42.067 34.8536 38.3631 35.2076 34.6592C35.3128 33.5525 35.4063 32.4442 35.5182 31.1906C35.2627 31.4293 35.1141 31.5595 34.9738 31.6997C33.2072 33.4641 31.4589 35.2467 29.6639 36.9827C29.2064 37.425 29.0878 37.854 29.1529 38.4616C29.4134 40.8585 29.6205 43.2621 29.8659 45.6607C29.9077 46.0714 29.7875 46.3651 29.5119 46.6606C28.6887 47.5436 27.9206 48.4783 27.0724 49.3346C26.6048 49.8053 26.5982 50.2894 26.7067 50.8719H37.2932L37.2915 50.8703ZM24.92 33.3556C24.723 31.2591 24.5309 29.2077 24.3306 27.0711C20.2563 28.7119 16.2738 30.3177 12.303 31.9167V35.2868C16.5143 34.6425 20.6787 34.0049 24.9217 33.3556H24.92ZM51.7319 35.2885C51.7319 34.2753 51.7119 33.3622 51.7419 32.4492C51.7553 32.0519 51.6234 31.875 51.251 31.7281C48.3322 30.573 45.4234 29.3896 42.513 28.2162C41.5962 27.8456 40.6779 27.4784 39.681 27.0778C39.4806 29.231 39.2886 31.2858 39.0949 33.3556C43.3428 34.0049 47.4923 34.6392 51.7336 35.2868L51.7319 35.2885Z" fill="#E18D51"/>
</svg>
