<svg xmlns="http://www.w3.org/2000/svg" width="16.887" height="13" viewBox="0 0 16.887 13"><path d="M26.717,120.35q3.223,0,6.444,0a3.271,3.271,0,0,1,.715.079,1.565,1.565,0,0,1,1.15.972.538.538,0,0,1-.225.778c-.537.349-1.085.681-1.625,1.025-2,1.268-4,2.531-5.993,3.815a.846.846,0,0,1-1.038,0q-3.762-2.413-7.544-4.8c-.409-.259-.456-.4-.273-.854a1.537,1.537,0,0,1,1.326-.972,6.089,6.089,0,0,1,.846-.045q3.105,0,6.216,0Zm6.352,13a3.943,3.943,0,0,0,.658-.045,1.579,1.579,0,0,0,1.253-.87c.228-.464.16-.684-.28-.962q-1.816-1.144-3.635-2.29-1.108-.7-2.212-1.41a.555.555,0,0,0-.668-.045c-.39.257-.794.5-1.182.757a.53.53,0,0,1-.681-.01,10.035,10.035,0,0,0-1.085-.679.723.723,0,0,0-.8.029c-1.108.7-2.225,1.4-3.338,2.1q-1.3.818-2.6,1.64a.441.441,0,0,0-.228.608,1.522,1.522,0,0,0,1.114,1.087,2.606,2.606,0,0,0,.713.089q3.274,0,6.548,0Q29.859,133.344,33.069,133.347Zm-14.837-3.278c0,.079-.037.183.047.228s.139-.042.2-.079q2.512-1.6,5.018-3.194c.267-.17.27-.17.008-.335q-2.508-1.6-5.018-3.194c-.066-.042-.131-.134-.215-.081s-.039.152-.042.233v3.2Q18.229,128.457,18.232,130.069Zm16.87-6.459c0-.066.026-.149-.037-.194s-.128.026-.183.06q-2.559,1.627-5.123,3.257c-.139.089-.155.142,0,.238q2.555,1.619,5.107,3.244c.06.037.121.121.2.071s.039-.139.039-.212q0-1.612,0-3.221T35.1,123.609Z" transform="translate(-18.222 -120.347)" fill="#de9a55"/></svg>