<svg xmlns="http://www.w3.org/2000/svg" width="16.54" height="14.193" viewBox="0 0 16.54 14.193"><path d="M24.417,104.117h4.106a2.332,2.332,0,0,0,.81,1.638c.356.286.722.562,1.086.843.645.5,1.3.99,1.934,1.5a2.66,2.66,0,0,1,1.029,2.125c.013.807,0,1.617,0,2.424a1.362,1.362,0,0,1-1.29,1.408c-.088.008-.178.01-.268.01q-5.343,0-10.685,0a1.386,1.386,0,0,1-1.328-.637,1.477,1.477,0,0,1-.206-.668c-.023-.887-.023-1.777,0-2.664a2.668,2.668,0,0,1,1.153-2.123c.823-.629,1.63-1.279,2.463-1.9A2.429,2.429,0,0,0,24.417,104.117Zm2.056,8.571a3.15,3.15,0,0,0,3.126-3.08,3.111,3.111,0,0,0-6.218-.142A3.144,3.144,0,0,0,26.473,112.687ZM24.353,100.1a11.039,11.039,0,0,0-5.855,3.059.859.859,0,0,0,0,1.3q.7.716,1.419,1.419a.865.865,0,0,0,1.212.077c.531-.4,1.057-.815,1.586-1.225a.736.736,0,0,0,.312-.64c-.01-.41.008-.82-.008-1.228-.008-.2.067-.271.242-.335a10.008,10.008,0,0,1,2.314-.529,9.309,9.309,0,0,1,4.132.526.284.284,0,0,1,.219.328c-.013.369,0,.738-.005,1.106a.937.937,0,0,0,.395.823c.518.389,1.027.792,1.542,1.181a.833.833,0,0,0,1.163-.064c.5-.487,1.008-.97,1.473-1.488a.976.976,0,0,0,.242-.694,1.339,1.339,0,0,0-.418-.683,11.455,11.455,0,0,0-8.179-3.149C25.771,99.923,25.054,99.972,24.353,100.1Zm2.123,7.833a1.655,1.655,0,1,0,.013,3.309,1.655,1.655,0,0,0-.013-3.309Z" transform="translate(-18.202 -99.879)" fill="#de9a55"/></svg>