<svg width="72" height="102" viewBox="0 0 72 102" fill="none" xmlns="http://www.w3.org/2000/svg">
<path d="M38.1147 0C39.8433 0.500117 41.6691 0.787883 43.2806 1.54004C50.044 4.69554 53.7036 10.0559 53.9735 17.5458C54.0827 20.604 54.0291 23.692 53.7135 26.7305C53.531 28.4868 52.6796 30.1757 52.1179 31.8904C52.0306 32.1583 51.8857 32.4084 51.7349 32.7338C53.2293 32.8331 54.6443 32.8251 56.0236 33.0355C65.1428 34.4307 71.7178 41.7895 71.9043 51.0099C72.0452 57.9381 72.0154 64.8723 71.9122 71.8005C71.821 77.9488 67.2405 82.7693 61.0923 83.4461C60.7688 83.4818 60.4453 83.5235 60.0226 83.5731V101.345H12.309V95.3973C10.9079 95.3973 9.61991 95.5263 8.36367 95.3735C3.555 94.796 0.339968 91.0947 0.330045 86.159C0.310199 74.6405 0.30623 63.1219 0.345922 51.6033C0.351875 50.1327 0.524535 48.6284 0.855961 47.1955C2.80681 38.8027 10.0029 33.0157 18.6061 32.837C19.1975 32.8251 19.7909 32.837 20.4935 32.837C20.4062 32.5552 20.3744 32.3389 20.2792 32.1563C18.884 29.4692 18.1933 26.6134 18.2549 23.5849C18.3144 20.7509 18.1457 17.8831 18.5208 15.0908C19.5508 7.42038 25.8717 1.27014 33.5144 0.190521C33.7327 0.160752 33.9411 0.0654915 34.1534 0C35.4732 0 36.7949 0 38.1147 0ZM53.9676 83.5374C53.4575 83.5374 53.0646 83.5374 52.6716 83.5374C46.4658 83.5374 40.26 83.5413 34.0542 83.5334C33.3953 83.5334 32.7325 83.4997 32.0795 83.4242C26.6001 82.7951 23.002 77.3256 24.5798 72.0367C25.7328 68.1747 29.1106 65.684 33.3477 65.6046C34.9215 65.5748 36.4972 65.6006 38.0968 65.6006C39.1943 57.3527 40.2779 49.2278 41.3694 41.0195C40.8871 41.1247 40.5676 41.1902 40.2501 41.2656C36.4317 42.1805 32.6094 42.0376 29.1483 40.2435C26.735 38.9932 24.3535 38.6479 21.7636 38.7789C20.7435 38.8305 19.7116 38.7293 18.6954 38.8146C17.5523 38.9119 16.3834 39.0151 15.2899 39.3366C9.84616 40.9362 6.30763 45.8024 6.29771 51.6926C6.27588 63.1139 6.29176 74.5333 6.29374 85.9546C6.29374 86.2503 6.29969 86.55 6.33939 86.8437C6.53586 88.2448 7.52022 89.3086 8.92332 89.4415C9.99103 89.5447 11.0766 89.4614 12.2674 89.4614V50.7678H18.2569V95.3854H53.9656V83.5354L53.9676 83.5374ZM24.0578 20.8322L24.2265 20.8461C24.2265 21.9674 24.2047 23.0907 24.2305 24.212C24.3634 30.3424 29.1304 35.2483 35.4613 35.7802C41.2245 36.2644 46.9163 31.9122 47.7915 26.0319C48.1964 23.315 48.0555 20.5068 48.0317 17.7403C47.9781 11.6039 43.4294 6.71585 37.2037 6.00339C31.5873 5.35839 25.9908 9.25613 24.6413 14.9539C24.1908 16.8531 24.2384 18.8695 24.0578 20.8303V20.8322ZM53.9398 77.4923V38.8722H47.6804C45.9598 51.7859 44.251 64.6143 42.5344 77.4923H53.9398ZM60.0523 77.4963C60.3083 77.4963 60.4691 77.5062 60.6279 77.4963C63.6742 77.2621 65.9525 74.6742 65.9664 71.3123C65.9962 64.7135 65.9863 58.1148 65.9684 51.516C65.9605 48.4419 65.0356 45.6575 63.0153 43.3196C62.1977 42.371 61.1915 41.5851 60.2726 40.7238C60.1992 40.7833 60.1277 40.8409 60.0543 40.9004V77.4963H60.0523ZM37.2851 71.6755C35.6339 71.6755 34.0562 71.5564 32.5062 71.7112C31.1249 71.8481 30.1743 73.1957 30.1862 74.5988C30.1981 75.9503 31.1488 77.276 32.4685 77.4228C33.7863 77.5717 35.1318 77.4546 36.5171 77.4546C36.7731 75.5216 37.0291 73.6105 37.2851 71.6735V71.6755Z" fill="#E18D51"/>
</svg>
