<svg width="80" height="100" viewBox="0 0 80 100" fill="none" xmlns="http://www.w3.org/2000/svg">
<path d="M80 100H0C0.00785855 99.577 0.021611 99.154 0.021611 98.731C0.021611 66.228 0.021611 33.725 0.021611 1.21999V0H79.9784V1.3179C79.9784 33.7896 79.9784 66.2593 79.9784 98.731C79.9784 99.154 79.9921 99.577 80 100ZM74.0432 5.84733H5.97249V94.0841H43.776C43.7996 93.8452 43.833 93.6553 43.833 93.4653C43.8369 88.5462 43.8468 83.629 43.8173 78.7099C43.8153 78.2928 43.6012 77.8365 43.3713 77.4684C41.5992 74.6446 40.945 71.574 41.4244 68.3018C42.2141 62.9049 46.2652 58.5967 51.6464 57.3141C56.8625 56.0725 62.3969 58.1698 65.5422 62.5857C68.719 67.0446 68.8507 72.8097 65.9175 77.4821C65.6601 77.8933 65.499 78.4377 65.4951 78.9214C65.4637 83.5801 65.4754 88.2368 65.4754 92.8955C65.4754 93.2773 65.4754 93.6592 65.4754 94.0685H74.0413V5.84733H74.0432ZM54.6758 77.7445C58.7505 77.7445 62.1159 74.4331 62.1454 70.3952C62.1749 66.2319 58.8251 62.8481 54.6739 62.8442C50.4892 62.8422 47.1356 66.1908 47.1631 70.3443C47.1906 74.4585 50.5246 77.7425 54.6778 77.7445H54.6758ZM49.8035 82.9711V90.8099C51.2633 90.2127 52.6031 89.6213 53.9784 89.1278C54.387 88.9809 54.9371 88.9809 55.3438 89.1278C56.7446 89.6311 58.112 90.2303 59.5383 90.8119V82.9554C57.8939 83.1767 56.2908 83.5585 54.6876 83.5605C53.0825 83.5624 51.4774 83.1884 49.8035 82.9691V82.9711Z" fill="#E18D51"/>
<path d="M66.3496 47.1586H13.7936C13.7602 47.0431 13.6993 46.9256 13.6993 46.8081C13.7033 44.3662 13.6031 41.9164 13.7465 39.4823C13.9508 36.0553 15.5795 33.2923 18.2593 31.0285C16.0215 28.428 15.1001 25.4377 15.774 22.0656C16.2769 19.5434 17.6031 17.4931 19.6817 15.948C23.7956 12.8932 29.5225 13.3475 33.0923 16.9977C36.5166 20.499 37.2514 26.4149 33.3084 31.0148C36.4302 33.6761 38.0215 37.0619 37.8683 41.2721H42.1375C42.0215 37.1422 43.5304 33.7192 46.6915 31.0657C42.0942 25.4083 44.2377 19.2026 47.5933 16.3769C51.4695 13.1125 57.2121 13.1458 60.9862 16.4376C64.3732 19.3906 66.3516 25.4828 61.8113 31.052C63.8172 32.7498 65.3162 34.8138 65.9155 37.4007C66.1846 38.5619 66.2927 39.778 66.33 40.9725C66.3948 43.015 66.3477 45.0613 66.3477 47.1606L66.3496 47.1586ZM31.9567 41.2995C32.1394 38.5678 31.1709 36.4705 28.8644 35.1428C26.6325 33.8562 24.3379 33.9718 22.2239 35.4365C20.22 36.8249 19.383 38.8126 19.6168 41.2995H31.9567ZM48.0589 41.2995H60.4184C60.6267 38.8165 59.8153 36.823 57.8015 35.4326C55.6817 33.9698 53.3889 33.8621 51.1571 35.1467C48.8487 36.4764 47.8958 38.5815 48.0569 41.2995H48.0589ZM25.7642 19.7921C23.3909 19.798 21.4577 21.7033 21.4322 24.063C21.4046 26.4247 23.4145 28.4397 25.7878 28.4319C28.1748 28.424 30.1571 26.4129 30.1139 24.0415C30.0707 21.672 28.1434 19.7862 25.7661 19.7921H25.7642ZM49.939 24.0865C49.9331 26.4952 51.8997 28.4573 54.2927 28.4319C56.6424 28.4064 58.5893 26.456 58.6011 24.1159C58.6129 21.7288 56.6345 19.7745 54.2219 19.7921C51.8329 19.8117 49.943 21.7053 49.9371 24.0865H49.939Z" fill="#E18D51"/>
<path d="M35.8012 56.1057V61.814H13.7363V56.1057H35.8012Z" fill="#E18D51"/>
<path d="M35.8346 73.8632H13.7324V68.106C14.1136 68.0864 14.4593 68.055 14.8071 68.055C21.4397 68.0511 28.0703 68.0687 34.703 68.0355C35.5831 68.0315 35.9053 68.2391 35.8562 69.1654C35.7756 70.6889 35.8346 72.2202 35.8346 73.8632Z" fill="#E18D51"/>
<path d="M13.7529 80.0925H27.3836V85.8694H13.7529V80.0925Z" fill="#E18D51"/>
</svg>
