<svg width="89" height="89" viewBox="0 0 89 89" fill="none" xmlns="http://www.w3.org/2000/svg">
<path d="M89 41.7115V88.9798H20.8791V78.5518C17.2818 78.5518 13.8081 78.5953 10.3362 78.5396C6.94431 78.4838 4.21933 77.0352 2.11771 74.3711C-0.603783 70.9218 0.0979192 66.891 0.0422009 62.874H5.23794C5.23794 62.4039 5.23794 62.0278 5.23794 61.6534C5.23794 44.6245 5.23271 27.5956 5.24142 10.5667C5.2449 4.63965 9.83818 0.0132875 15.7408 0.0098051C33.118 -0.00412449 50.4934 -0.00238329 67.8706 0.0098051C73.7854 0.0132875 78.3752 4.62224 78.3978 10.5406C78.41 13.6974 78.3996 16.8542 78.3996 20.0109C78.3996 20.2843 78.3996 20.5577 78.3996 20.8955H62.8211V31.3044H67.982V41.7132H89V41.7115ZM58.7328 5.21773C58.5064 5.21773 58.2226 5.21773 57.9405 5.21773C43.9831 5.21773 30.0274 5.21773 16.0699 5.21773C12.6119 5.21773 10.4528 7.39074 10.4528 10.8679C10.4511 27.8933 10.4528 44.9205 10.4528 61.9459C10.4528 62.2524 10.4528 62.5571 10.4528 62.8409H20.9139V41.6871H41.9493V31.2504H57.5487C57.5487 30.876 57.5487 30.5643 57.5487 30.2527C57.5487 23.7963 57.5453 17.3382 57.554 10.8818C57.554 10.2184 57.547 9.5359 57.695 8.89688C57.9788 7.67282 58.3723 6.47313 58.7345 5.21599L58.7328 5.21773ZM26.1219 83.7092H83.7329V63.4956C76.7071 64.8921 69.7476 66.2763 62.7305 67.6728V78.4926H47.0998V67.6501C40.0845 66.2572 33.1284 64.8764 26.1201 63.4852V83.7109L26.1219 83.7092ZM83.766 46.9856H26.1358V58.1345C26.2559 58.1728 26.3343 58.2041 26.4161 58.2215C31.974 59.3272 37.5615 60.3092 43.0846 61.5716C47.9217 62.6773 52.7779 63.1265 57.7176 62.9158C58.2661 62.8932 58.8181 62.928 59.3683 62.9071C59.7409 62.8932 60.1187 62.8583 60.4844 62.787C66.4706 61.6099 72.4569 60.4259 78.4414 59.2401C80.2157 58.8884 81.9899 58.5245 83.7642 58.1658V46.9856H83.766ZM73.1777 15.604C73.1777 13.7078 73.2317 11.9109 73.1655 10.1192C73.0715 7.61362 71.0639 5.53985 68.5548 5.24559C66.0771 4.95481 63.4566 6.53756 63.0248 8.98568C62.6452 11.143 62.7706 13.3892 62.6731 15.604H73.1777ZM47.1834 36.5367V41.6436H62.7149V36.5367H47.1834ZM5.27624 68.1551C5.26928 71.0211 7.55024 73.3055 10.4337 73.3316C13.7298 73.3612 17.0258 73.3404 20.3219 73.3369C20.4873 73.3369 20.651 73.3108 20.8199 73.2951V68.1533H5.27624V68.1551ZM57.4895 73.3229V68.1916H52.4052V73.3229H57.4895Z" fill="#E18D51"/>
<path d="M52.2918 10.49V15.6004H15.7354V10.49H52.2918Z" fill="#E18D51"/>
<path d="M15.7305 20.892H52.2834V26.0006H15.7305V20.892Z" fill="#E18D51"/>
<path d="M36.6521 31.3445V36.4549H15.7334V31.3445H36.6504H36.6521Z" fill="#E18D51"/>
</svg>
