<svg width="88" height="88" viewBox="0 0 88 88" fill="none" xmlns="http://www.w3.org/2000/svg">
<path d="M0 88C0 64.3382 0 40.678 0 17.0162C0.216999 16.8457 0.456387 16.6959 0.649275 16.4996C5.65747 11.4452 10.6622 6.38732 15.6618 1.32258C16.0769 0.902387 16.4506 0.442583 16.845 0C33.69 0 50.5349 0 67.3799 0V20.8393C67.8845 20.4191 68.2186 20.116 68.5769 19.8474C71.5735 17.6 74.5392 15.3044 77.5909 13.1328C79.3407 11.8877 81.2679 10.9251 83.431 10.5514C86.283 10.0606 88.4426 12.1788 87.9225 15.0168C87.7641 15.8813 87.5557 16.7768 87.1544 17.5466C86.2313 19.3169 85.2841 21.0942 84.1526 22.7336C79.4492 29.5446 73.852 35.5961 67.9913 41.4117C67.5487 41.8508 67.3679 42.2779 67.3696 42.9013C67.3868 57.5909 67.3834 72.2788 67.3834 86.9685C67.3834 87.2991 67.3834 87.628 67.3834 87.9983H0V88ZM62.2253 5.22145H20.6046V20.8169H5.23037V82.7941H62.1547V46.9844C61.8275 47.2686 61.5898 47.4701 61.3556 47.6767C57.4272 51.1519 53.4455 54.5721 48.9522 57.3016C47.2369 58.3435 45.3476 59.177 43.4377 59.7935C42.4199 60.1224 41.5794 60.472 40.8699 61.2573C40.1224 62.0856 39.282 62.8296 38.5191 63.6441C38.2728 63.9059 38.1453 64.2779 38.0127 64.5138C36.5643 63.0655 35.3932 61.8945 34.1636 60.6649C35.4139 59.4198 36.7193 58.1368 37.9972 56.8297C38.2194 56.6024 38.3933 56.289 38.4915 55.9842C38.8842 54.7667 39.0185 53.4079 39.6488 52.3385C41.2729 49.5848 42.9641 46.8449 44.8895 44.2996C49.8771 37.704 55.5965 31.7575 61.6053 26.09C62.0617 25.6595 62.2443 25.2341 62.2391 24.6073C62.2116 20.4828 62.2253 16.3566 62.2253 12.2322V5.22145ZM63.1364 38.9938C61.9016 37.7608 60.7356 36.5949 59.5042 35.3653C54.1223 41.0397 48.7938 46.8363 44.7896 53.7093C51.6509 49.7002 57.4324 44.384 63.1364 38.9938ZM81.6846 16.6683C74.7803 20.8565 69.0109 26.1451 63.4516 31.4217C64.6864 32.6754 65.8558 33.8619 67.0251 35.0485C72.1264 30.2214 80.8528 19.3721 81.6846 16.6683ZM15.4379 9.07898C15.493 9.1582 15.5482 9.23742 15.605 9.31491C13.4161 11.4211 11.2254 13.5255 9.08124 15.5868H15.4724C15.4724 13.5134 15.4724 11.4899 15.4724 9.46818C15.4724 9.3373 15.45 9.20814 15.4397 9.07726L15.4379 9.07898Z" fill="#E18D51"/>
<path d="M24.0402 70.1898C24.1177 70.121 24.1711 70.09 24.1987 70.0435C26.0948 66.6974 29.491 66.7077 32.1484 68.8741C33.8207 70.2363 34.9935 71.9808 36.0113 73.9871C34.47 74.7345 32.9682 75.4612 31.5198 76.1621C30.5984 74.9446 29.7184 73.7822 28.7539 72.5044C28.1856 73.6444 27.7912 74.564 27.2883 75.4199C26.5237 76.7184 25.4163 77.5829 23.8542 77.6879C21.8134 77.8257 20.2668 76.8251 19.6296 74.6622C19.1164 72.9177 18.9201 71.0819 18.5653 69.2909C18.4447 68.6813 18.2725 68.082 17.9866 67.4603C16.0233 69.6818 15.9062 72.5009 15.4171 75.2752C13.7293 75.1616 12.0605 75.0496 10.3193 74.9325C10.6965 71.447 11.208 68.0958 13.1076 65.1492C14.6163 62.8089 16.8827 61.8169 19.2439 62.3697C21.2261 62.8347 22.3938 64.1934 23.0052 66.0206C23.4529 67.3587 23.6958 68.7657 24.0419 70.1916L24.0402 70.1898Z" fill="#E18D51"/>
<path d="M10.3574 31.0498V25.9971H36.3732V31.0498H10.3574Z" fill="#E18D51"/>
<path d="M25.7472 36.3262V41.3754H10.3867V36.3262H25.7472Z" fill="#E18D51"/>
<path d="M10.3574 51.6755V46.6211H25.7179V51.6755H10.3574Z" fill="#E18D51"/>
</svg>
