<svg width="89" height="88" viewBox="0 0 89 88" fill="none" xmlns="http://www.w3.org/2000/svg">
<path d="M89 31.2828V88.0003H42.6069V77.6886H41.4603C31.439 77.6886 21.4177 77.6989 11.3964 77.6834C6.75327 77.6766 2.71961 74.6612 1.44736 70.2786C0.682979 67.6422 1.16158 64.9506 1.00491 62.1867H6.1817V61.0674C6.1817 44.2274 6.17826 27.3858 6.18342 10.5458C6.18515 4.53072 10.7095 0.0068882 16.7247 0.00516615C33.875 -0.00172205 51.0254 -0.00172205 68.1775 0.00516615C74.1462 0.0068882 78.6722 4.53244 78.6895 10.489C78.6981 13.5818 78.6895 16.6746 78.6895 19.7691C78.6895 20.0412 78.6895 20.315 78.6895 20.6491H63.2779V31.2828H88.9983H89ZM59.468 5.15926H58.4454C44.6194 5.15926 30.7917 5.15926 16.9657 5.15926C13.4674 5.15926 11.3378 7.27567 11.3361 10.7577C11.3361 27.5941 11.3361 44.4324 11.3361 61.2689V62.1505H42.6361V31.269H58.0718V30.2461C58.0718 24.1466 58.0959 18.0471 58.0598 11.9493C58.046 9.63488 58.17 7.37382 59.468 5.15926ZM83.7853 82.8065V36.5075H47.8095V82.8048H83.7853V82.8065ZM6.21958 67.4028C6.20064 70.2907 8.50067 72.5242 11.4859 72.5259C21.6432 72.5362 31.8022 72.5293 41.9596 72.5293C42.1524 72.5293 42.3435 72.5104 42.5518 72.5001V67.4028H6.21958ZM73.5333 15.4347C73.5333 13.6696 73.5523 11.9855 73.5282 10.2996C73.4886 7.58908 71.4554 5.39174 68.8196 5.17304C66.1288 4.9509 63.6411 6.7866 63.3295 9.51089C63.1074 11.4499 63.2865 13.4337 63.2865 15.433H73.5333V15.4347Z" fill="#E18D51"/>
<path d="M22.8806 37.7233C24.3456 36.8726 25.7763 36.0409 27.2362 35.1919C27.3687 35.3193 27.4927 35.4312 27.608 35.5483C28.5153 36.4783 29.6584 36.6918 30.731 36.1304C31.7588 35.5914 32.3183 34.4135 32.0652 33.3148C31.776 32.0526 30.7861 31.1881 29.5448 31.1106C25.988 30.8902 23.3006 28.9081 22.2298 25.7137C20.9748 21.9734 22.6637 17.9542 26.2136 16.2338C26.4442 16.1219 26.6801 16.0203 26.9676 15.8877V10.3702H32.1255C32.1255 11.989 32.1461 13.5836 32.1134 15.1799C32.1031 15.7052 32.2374 15.9755 32.7521 16.1977C34.2327 16.8417 35.393 17.8749 36.2194 19.3473C34.7526 20.1963 33.322 21.0263 31.8586 21.8735C31.7261 21.7478 31.6021 21.6376 31.4868 21.5188C30.5812 20.5889 29.4381 20.3719 28.3638 20.9316C27.336 21.4671 26.7748 22.6485 27.0261 23.7454C27.3154 25.0059 28.307 25.8911 29.5465 25.9514C33.0241 26.1184 35.4498 27.8336 36.7307 31.0297C38.2818 34.9043 36.5155 39.1302 32.728 40.9005C32.5472 40.9849 32.3648 41.0658 32.1289 41.1743V46.6935H26.9711C26.9711 45.0799 26.9504 43.4836 26.9831 41.8889C26.9934 41.3672 26.8643 41.0934 26.3478 40.8678C24.8707 40.222 23.7035 39.1957 22.8806 37.7216V37.7233Z" fill="#E18D51"/>
<path d="M16.5283 57.0014V51.9541H37.2406V57.0014H16.5283Z" fill="#E18D51"/>
<path d="M52.9795 41.6323H78.6431V56.9947H52.9795V41.6323ZM58.1339 46.7881V51.8389H73.4887V46.7881H58.1339Z" fill="#E18D51"/>
<path d="M73.5977 62.2573H78.6453V77.6163H73.5977V62.2573Z" fill="#E18D51"/>
<path d="M57.9991 67.3562H52.9824V62.2761H57.9991V67.3562Z" fill="#E18D51"/>
<path d="M68.3201 67.3374H63.2725V62.2883H68.3201V67.3374Z" fill="#E18D51"/>
<path d="M52.957 77.6284V72.5742H58.0047V77.6284H52.957Z" fill="#E18D51"/>
<path d="M63.2871 72.5691H68.3348V77.6181H63.2871V72.5691Z" fill="#E18D51"/>
</svg>
